{"glyphs":{"0":{"ha":694,"x_min":0,"x_max":0,"o":"m 342 60 b 217 142 292 60 249 88 l 515 624 b 543 444 533 544 543 485 b 342 60 543 261 500 60 z m 347 814 b 478 726 401 814 446 785 l 174 250 b 151 444 160 293 151 358 b 347 814 151 617 194 814 z m 38 439 b 347 -28 38 189 117 -28 b 657 439 578 -28 657 189 b 347 900 657 683 575 900 b 38 439 119 900 38 690 z "},"1":{"ha":694,"x_min":0,"x_max":0,"o":"m 635 0 l 635 86 l 429 86 l 429 879 l 319 879 b 108 743 261 821 192 775 l 108 646 b 319 765 167 668 236 707 l 319 86 l 108 86 l 108 0 z "},"2":{"ha":694,"x_min":0,"x_max":0,"o":"m 364 900 b 103 846 258 900 171 882 l 103 749 b 342 814 197 792 276 814 b 489 700 417 814 489 776 b 119 217 489 589 161 294 b 86 97 97 181 86 140 l 86 0 l 613 0 l 613 97 l 196 97 b 310 315 200 165 238 239 b 569 592 458 457 544 549 b 603 711 592 632 603 671 b 364 900 603 839 504 900 z "},"3":{"ha":694,"x_min":0,"x_max":0,"o":"m 618 256 b 429 489 618 390 531 463 b 575 694 526 539 575 608 b 299 900 575 846 475 900 b 97 863 219 900 151 888 l 97 765 b 299 814 169 797 238 814 b 461 683 403 814 461 776 b 256 526 461 578 369 526 l 174 526 l 174 439 l 233 439 b 504 250 401 439 504 386 b 304 60 504 136 421 60 b 82 125 243 60 168 82 l 82 17 b 293 -28 168 -12 239 -28 b 618 256 476 -28 618 81 z "},"4":{"ha":694,"x_min":0,"x_max":0,"o":"m 401 331 l 142 331 l 401 717 z m 667 244 l 667 331 l 504 331 l 504 879 l 401 879 l 28 331 l 28 244 l 401 244 l 401 0 l 504 0 l 504 244 z "},"5":{"ha":694,"x_min":0,"x_max":0,"o":"m 504 261 b 304 71 504 147 421 71 b 86 131 250 71 176 90 l 86 17 b 304 -28 194 -12 268 -28 b 624 271 488 -28 624 90 b 228 558 624 471 451 558 l 211 558 l 211 776 l 597 776 l 597 879 l 108 879 l 108 456 l 174 456 b 504 261 367 456 504 418 z "},"6":{"ha":694,"x_min":0,"x_max":0,"o":"m 206 256 b 390 461 206 374 279 461 b 549 276 496 461 549 375 b 369 60 549 156 478 60 b 206 256 278 60 206 158 z m 413 814 b 586 771 453 814 510 800 l 586 879 b 418 900 546 893 490 900 b 60 429 175 900 60 693 b 364 -28 60 190 140 -28 b 657 282 526 -28 657 114 b 396 549 657 444 557 549 b 163 413 299 549 221 503 l 163 433 b 413 814 163 624 233 814 z "},"7":{"ha":694,"x_min":0,"x_max":0,"o":"m 293 76 b 325 265 293 156 303 218 b 532 575 347 315 417 419 b 651 808 611 676 651 754 l 651 879 l 92 879 l 92 771 l 549 771 b 483 657 535 728 513 689 b 222 282 339 469 251 343 b 179 76 193 206 179 138 l 179 0 l 293 0 z "},"8":{"ha":694,"x_min":0,"x_max":0,"o":"m 353 60 b 190 201 269 60 190 125 b 336 418 190 269 239 342 b 483 276 401 364 451 317 b 515 196 506 251 515 225 b 353 60 515 118 425 60 z m 353 814 b 489 706 422 814 489 771 b 369 526 489 644 449 585 b 222 700 286 586 222 621 b 353 814 222 764 288 814 z m 353 -28 b 629 206 510 -28 629 58 b 439 472 629 340 565 371 b 592 711 540 551 592 632 b 369 900 592 826 499 900 b 125 689 243 900 125 813 b 239 489 125 617 163 550 l 261 472 b 76 201 138 393 76 303 b 353 -28 76 53 197 -28 z "},"9":{"ha":694,"x_min":0,"x_max":0,"o":"m 489 618 b 304 418 489 510 403 418 b 146 597 206 418 146 492 b 319 814 146 718 208 814 b 489 618 417 814 489 724 z m 282 60 b 103 103 242 60 182 74 l 103 0 b 276 -28 182 -18 240 -28 b 635 444 522 -28 635 178 b 331 900 635 693 560 900 b 38 592 161 900 38 763 b 293 331 38 446 144 331 b 526 467 390 331 468 376 l 526 444 b 282 60 526 251 467 60 z "}," ":{"ha":694,"x_min":0,"x_max":0,"o":""},"!":{"ha":694,"x_min":0,"x_max":0,"o":"m 429 54 b 347 136 429 104 397 136 b 265 54 301 136 265 94 b 347 -28 265 18 311 -28 b 429 54 388 -28 429 8 z m 271 879 l 299 250 l 385 250 l 413 879 z "},"\"":{"ha":694,"x_min":0,"x_max":0,"o":"m 433 597 l 504 597 l 543 911 l 401 911 z m 190 597 l 261 597 l 293 911 l 151 911 z "},"#":{"ha":694,"x_min":0,"x_max":0,"o":"m 390 315 l 233 315 l 293 549 l 456 549 z m 38 239 l 131 239 l 65 0 l 151 0 l 211 239 l 369 239 l 304 0 l 390 0 l 456 239 l 657 239 l 657 315 l 478 315 l 538 549 l 657 549 l 657 629 l 558 629 l 629 879 l 543 879 l 478 629 l 315 629 l 379 879 l 299 879 l 233 629 l 38 629 l 38 549 l 211 549 l 151 315 l 38 315 z "},"$":{"ha":694,"x_min":0,"x_max":0,"o":"m 407 97 l 407 358 b 510 222 475 311 510 265 b 407 97 510 144 465 126 z m 325 786 l 325 526 b 211 672 249 576 211 625 b 325 786 211 733 263 769 z m 624 233 b 407 478 624 369 540 399 l 407 786 b 564 749 458 786 496 768 l 564 846 b 407 874 485 864 432 874 l 407 965 l 325 965 l 325 874 b 97 663 206 867 97 775 b 146 538 97 619 114 578 b 325 401 171 501 231 456 l 325 86 b 92 157 246 90 168 114 l 92 49 b 325 0 157 17 235 0 l 325 -86 l 407 -86 l 407 11 b 624 233 528 29 624 103 z "},"%":{"ha":694,"x_min":0,"x_max":0,"o":"m 603 222 b 515 71 603 128 586 71 b 429 217 453 71 429 151 b 515 369 429 289 451 369 b 603 222 582 369 603 292 z m 342 217 b 515 0 342 101 410 0 b 694 228 624 0 694 100 b 515 439 694 353 631 439 b 342 217 397 439 342 347 z m 265 657 b 179 510 265 589 247 510 b 92 657 111 510 92 582 b 179 808 92 731 114 808 b 265 657 243 808 265 729 z m 0 657 b 179 439 0 539 69 439 b 353 657 290 439 353 540 b 179 879 353 788 297 879 b 0 657 61 879 0 785 z m 0 -28 l 92 -28 l 694 900 l 603 900 z "},"&":{"ha":694,"x_min":0,"x_max":0,"o":"m 103 222 b 211 424 103 294 139 363 l 439 142 b 271 60 385 88 329 60 b 103 222 181 60 103 129 z m 265 825 b 364 732 329 825 364 790 b 239 558 364 678 322 619 b 168 717 192 617 168 669 b 265 825 168 771 203 825 z m 276 900 b 65 694 157 900 65 813 b 157 493 65 644 96 576 b 0 217 51 407 0 314 b 271 -28 0 76 118 -28 b 499 76 357 -28 433 8 l 558 0 l 694 0 l 558 163 b 613 418 594 231 613 317 l 613 444 l 510 444 l 510 418 b 493 250 510 346 504 290 l 293 493 b 456 743 401 576 456 660 b 276 900 456 846 371 900 z "},"(":{"ha":694,"x_min":0,"x_max":0,"o":"m 608 -211 l 608 -125 b 222 358 383 -103 222 115 b 608 840 222 610 378 818 l 608 928 b 108 358 318 921 108 653 b 608 -211 108 61 324 -190 z "},")":{"ha":694,"x_min":0,"x_max":0,"o":"m 86 928 l 86 840 b 472 358 315 818 472 613 b 86 -125 472 110 310 -103 l 86 -211 b 586 358 375 -190 586 63 b 86 928 586 653 376 921 z "},"*":{"ha":694,"x_min":0,"x_max":0,"o":"m 549 461 l 603 553 l 429 635 l 603 722 l 549 814 l 385 706 l 401 900 l 293 900 l 304 706 l 146 814 l 92 722 l 265 635 l 92 553 l 146 461 l 304 569 l 293 375 l 401 375 l 385 569 z "},",":{"ha":694,"x_min":0,"x_max":0,"o":"m 336 168 b 244 76 286 168 244 126 b 347 -22 244 17 285 -22 b 239 -174 347 -96 307 -167 l 239 -244 b 456 11 353 -237 456 -117 b 336 168 456 104 417 168 z "},"-":{"ha":694,"x_min":0,"x_max":0,"o":"m 131 401 l 131 310 l 564 310 l 564 401 z "},".":{"ha":694,"x_min":0,"x_max":0,"o":"m 439 65 b 347 157 439 115 397 157 b 256 65 297 157 256 115 b 347 -28 256 15 297 -28 b 439 65 397 -28 439 15 z "},"/":{"ha":694,"x_min":0,"x_max":0,"o":"m 17 -28 l 119 -28 l 678 900 l 575 900 z "},":":{"ha":694,"x_min":0,"x_max":0,"o":"m 439 65 b 347 157 439 115 397 157 b 256 65 297 157 256 115 b 347 -28 256 15 297 -28 b 439 65 397 -28 439 15 z m 439 558 b 347 651 439 608 397 651 b 256 558 297 651 256 608 b 347 467 256 508 297 467 b 439 558 397 467 439 508 z "},";":{"ha":694,"x_min":0,"x_max":0,"o":"m 336 168 b 244 76 286 168 244 126 b 347 -22 244 17 285 -22 b 239 -174 347 -96 307 -167 l 239 -244 b 456 11 353 -237 456 -117 b 336 168 456 104 417 168 z m 429 558 b 336 651 429 608 386 651 b 244 558 286 651 244 608 b 336 467 244 508 286 467 b 429 558 386 467 429 508 z "},"<":{"ha":694,"x_min":0,"x_max":0,"o":"m 233 310 l 657 515 l 657 613 l 38 310 l 657 0 l 657 97 z "},">":{"ha":694,"x_min":0,"x_max":0,"o":"m 461 304 l 38 97 l 38 0 l 657 310 l 38 613 l 38 515 z "},"?":{"ha":694,"x_min":0,"x_max":0,"o":"m 364 54 b 282 136 364 104 332 136 b 201 54 236 136 201 94 b 282 -28 201 18 246 -28 b 364 54 322 -28 364 8 z m 336 900 b 119 851 264 900 192 883 l 119 749 b 336 814 196 792 268 814 b 483 717 414 814 483 788 b 369 532 483 676 446 615 b 228 271 264 426 228 414 l 228 250 l 331 250 l 331 276 b 385 424 331 338 349 388 b 564 618 490 529 550 593 b 597 717 586 650 597 685 b 336 900 597 847 485 900 z "},"@":{"ha":694,"x_min":0,"x_max":0,"o":"m 222 424 b 379 608 222 532 260 608 l 401 608 l 401 456 b 271 331 351 372 307 331 b 222 424 236 331 222 383 z m 71 439 b 347 836 71 625 161 836 b 624 489 540 836 624 689 b 532 325 624 414 603 325 b 489 433 490 325 489 369 l 489 683 l 379 683 b 131 429 219 683 131 579 b 265 244 131 344 183 244 b 401 353 326 244 372 281 b 515 244 408 293 446 244 b 694 493 631 244 694 354 b 353 900 694 731 574 900 b 0 439 114 900 0 697 b 358 -28 0 179 118 -28 b 521 22 419 -28 474 -10 l 521 114 b 353 38 471 64 414 38 b 71 439 165 38 71 233 z "},"A":{"ha":694,"x_min":0,"x_max":0,"o":"m 364 613 l 472 282 l 217 282 b 342 700 258 421 307 554 z m 553 0 l 678 0 l 407 879 l 288 879 l 17 0 l 131 0 l 190 196 l 493 196 z "},"B":{"ha":694,"x_min":0,"x_max":0,"o":"m 493 233 b 319 86 493 140 421 86 l 211 86 l 211 396 l 244 396 b 493 233 392 396 493 358 z m 472 667 b 331 483 472 583 425 524 l 211 483 l 211 786 l 293 786 b 472 667 404 786 472 765 z m 608 228 b 433 450 608 356 535 408 b 581 678 531 504 581 581 b 265 879 581 847 471 879 l 97 879 l 97 0 l 310 0 b 608 228 486 0 608 64 z "},"C":{"ha":694,"x_min":0,"x_max":0,"o":"m 185 439 b 433 814 185 621 264 814 b 613 765 494 814 554 797 l 613 868 b 439 906 563 893 504 906 b 65 439 201 906 65 693 b 439 -28 65 185 201 -28 b 613 11 504 -28 563 -14 l 613 114 b 433 60 554 78 494 60 b 185 439 263 60 185 253 z "},"D":{"ha":694,"x_min":0,"x_max":0,"o":"m 538 456 b 276 97 538 215 489 97 l 201 97 l 201 786 l 288 786 b 538 456 485 786 538 672 z m 651 433 b 293 879 651 722 564 879 l 86 879 l 86 0 l 293 0 b 651 433 556 0 651 172 z "},"E":{"ha":694,"x_min":0,"x_max":0,"o":"m 543 401 l 543 493 l 228 493 l 228 786 l 581 786 l 581 879 l 114 879 l 114 0 l 586 0 l 586 97 l 228 97 l 228 401 z "},"F":{"ha":694,"x_min":0,"x_max":0,"o":"m 575 401 l 575 493 l 244 493 l 244 786 l 608 786 l 608 879 l 131 879 l 131 0 l 244 0 l 244 401 z "},"G":{"ha":694,"x_min":0,"x_max":0,"o":"m 433 814 b 613 765 494 814 554 797 l 613 868 b 439 906 563 893 504 906 b 65 439 201 906 65 693 b 444 -28 65 182 203 -28 b 613 0 476 -28 533 -18 l 613 433 l 413 433 l 413 347 l 499 347 l 499 65 b 185 439 271 39 185 219 b 433 814 185 621 264 814 z "},"H":{"ha":694,"x_min":0,"x_max":0,"o":"m 510 413 l 510 0 l 624 0 l 624 879 l 510 879 l 510 499 l 185 499 l 185 879 l 71 879 l 71 0 l 185 0 l 185 413 z "},"I":{"ha":694,"x_min":0,"x_max":0,"o":"m 401 86 l 401 786 l 597 786 l 597 879 l 97 879 l 97 786 l 288 786 l 288 86 l 97 86 l 97 0 l 597 0 l 597 86 z "},"J":{"ha":694,"x_min":0,"x_max":0,"o":"m 543 304 l 543 879 l 228 879 l 228 786 l 429 786 l 429 304 b 265 60 429 132 406 60 b 60 125 211 60 143 82 l 60 22 b 271 -28 132 -10 203 -28 b 543 304 464 -28 543 86 z "},"K":{"ha":694,"x_min":0,"x_max":0,"o":"m 201 0 l 201 444 l 553 0 l 694 0 l 336 461 l 651 879 l 526 879 l 201 444 l 201 879 l 86 879 l 86 0 z "},"L":{"ha":694,"x_min":0,"x_max":0,"o":"m 125 879 l 125 0 l 597 0 l 597 97 l 239 97 l 239 879 z "},"M":{"ha":694,"x_min":0,"x_max":0,"o":"m 125 0 l 125 558 l 119 635 l 125 635 l 146 558 l 282 174 l 396 174 b 558 635 450 328 504 482 l 558 0 l 663 0 l 663 879 l 553 879 l 347 299 l 146 879 l 32 879 l 32 0 z "},"N":{"ha":694,"x_min":0,"x_max":0,"o":"m 174 0 l 174 667 l 217 575 l 521 0 l 624 0 l 624 879 l 521 879 l 521 206 l 483 293 l 174 879 l 71 879 l 71 0 z "},"O":{"ha":694,"x_min":0,"x_max":0,"o":"m 151 439 b 347 814 151 626 197 814 b 538 439 497 814 538 618 b 347 60 538 256 499 60 b 151 439 196 60 151 247 z m 657 439 b 347 900 657 683 575 900 b 38 439 119 900 38 690 b 347 -28 38 189 117 -28 b 657 439 578 -28 657 189 z "},"P":{"ha":694,"x_min":0,"x_max":0,"o":"m 526 624 b 261 407 526 471 418 407 l 211 407 l 211 786 l 282 786 b 526 624 440 786 526 764 z m 640 629 b 319 879 640 813 526 879 l 97 879 l 97 0 l 211 0 l 211 319 l 261 319 b 640 629 493 319 640 424 z "},"Q":{"ha":694,"x_min":0,"x_max":0,"o":"m 538 439 b 347 60 538 256 499 60 b 151 439 196 60 151 247 b 347 814 151 626 197 814 b 538 439 497 814 538 618 z m 657 439 b 347 900 657 683 575 900 b 38 450 121 900 38 692 b 336 -28 38 206 113 -1 b 667 -244 400 -168 476 -244 l 694 -244 l 694 -157 l 683 -157 b 424 -17 564 -157 478 -111 b 657 439 589 29 657 218 z "},"R":{"ha":694,"x_min":0,"x_max":0,"o":"m 493 657 b 358 461 493 574 449 508 l 201 461 l 201 786 l 282 786 b 493 657 410 786 493 761 z m 319 879 l 86 879 l 86 0 l 201 0 l 201 375 l 315 375 l 543 0 l 678 0 l 429 413 b 603 678 544 474 603 563 b 319 879 603 826 497 879 z "},"S":{"ha":694,"x_min":0,"x_max":0,"o":"m 624 222 b 478 444 624 313 575 386 b 244 603 344 524 267 578 b 211 683 222 625 211 651 b 375 814 211 763 282 814 b 564 776 451 814 514 801 l 564 874 b 379 900 485 892 422 900 b 97 667 217 900 97 822 b 250 444 97 576 149 503 b 478 293 388 368 464 318 b 510 201 500 268 510 238 b 336 60 510 114 421 60 b 86 125 264 60 181 82 l 86 17 b 310 -28 183 -12 260 -28 b 624 222 501 -28 624 56 z "},"T":{"ha":694,"x_min":0,"x_max":0,"o":"m 667 781 l 667 879 l 28 879 l 28 781 l 288 781 l 288 0 l 401 0 l 401 781 z "},"U":{"ha":694,"x_min":0,"x_max":0,"o":"m 342 -28 b 624 304 532 -28 624 114 l 624 879 l 521 879 l 521 347 b 347 60 521 169 494 60 b 185 304 215 60 185 157 l 185 879 l 71 879 l 71 315 b 342 -28 71 89 138 -28 z "},"V":{"ha":694,"x_min":0,"x_max":0,"o":"m 331 265 l 142 879 l 17 879 l 293 0 l 407 0 l 678 879 l 564 879 b 353 174 494 643 414 418 z "},"W":{"ha":694,"x_min":0,"x_max":0,"o":"m 336 683 l 342 683 l 353 597 l 467 0 l 575 0 l 678 879 l 592 879 l 521 319 l 515 239 l 504 319 l 396 879 l 293 879 b 190 256 260 671 218 469 l 179 342 l 119 879 l 17 879 l 119 0 l 222 0 b 336 683 260 229 304 449 z "},"X":{"ha":694,"x_min":0,"x_max":0,"o":"m 667 0 l 407 467 l 640 879 l 521 879 l 347 575 l 179 879 l 54 879 l 282 456 l 28 0 l 146 0 l 342 347 l 538 0 z "},"Y":{"ha":694,"x_min":0,"x_max":0,"o":"m 407 0 l 407 407 l 667 879 l 549 879 l 353 526 l 157 879 l 28 879 l 293 407 l 293 0 z "},"Z":{"ha":694,"x_min":0,"x_max":0,"o":"m 624 97 l 201 97 l 618 786 l 618 879 l 82 879 l 82 786 l 483 786 l 71 97 l 71 0 l 624 0 z "},"[":{"ha":694,"x_min":0,"x_max":0,"o":"m 304 -125 l 304 840 l 657 840 l 657 928 l 201 928 l 201 -211 l 657 -211 l 657 -125 z "},"\\":{"ha":694,"x_min":0,"x_max":0,"o":"m 17 900 l 575 -28 l 678 -28 l 119 900 z "},"]":{"ha":694,"x_min":0,"x_max":0,"o":"m 390 840 l 390 -125 l 38 -125 l 38 -211 l 493 -211 l 493 928 l 38 928 l 38 840 z "},"^":{"ha":694,"x_min":0,"x_max":0,"o":"m 347 683 l 558 261 l 657 261 l 347 879 l 38 261 l 136 261 z "},"_":{"ha":694,"x_min":0,"x_max":0,"o":"m 38 0 l 38 -86 l 657 -86 l 657 0 z "},"`":{"ha":694,"x_min":0,"x_max":0,"o":"m 375 726 l 472 726 l 304 911 l 179 911 z "},"a":{"ha":694,"x_min":0,"x_max":0,"o":"m 174 271 b 396 553 174 432 250 553 b 504 538 432 553 468 549 l 504 265 b 288 82 436 142 364 82 b 174 271 211 82 174 172 z m 261 -17 b 504 142 358 -17 439 36 b 521 0 511 74 517 25 l 629 0 b 608 185 615 32 608 94 l 608 629 l 504 629 b 385 640 483 632 385 640 b 60 261 178 640 60 469 b 261 -17 60 117 125 -17 z "},"b":{"ha":694,"x_min":0,"x_max":0,"o":"m 288 82 b 185 92 288 82 271 85 l 185 364 b 401 549 253 488 325 549 b 515 358 483 549 515 458 b 288 82 515 208 431 82 z m 304 -11 b 629 375 500 -11 629 168 b 424 651 629 524 558 651 b 185 489 329 651 250 597 l 185 911 l 82 911 l 82 0 l 185 0 b 304 -11 247 0 263 -11 z "},"c":{"ha":694,"x_min":0,"x_max":0,"o":"m 206 319 b 424 558 206 450 289 558 b 618 510 485 558 550 542 l 618 613 b 413 651 564 638 496 651 b 92 315 229 651 92 499 b 418 -17 92 124 228 -17 b 618 17 483 -17 550 -6 l 618 119 b 429 82 553 94 490 82 b 206 319 286 82 206 183 z "},"d":{"ha":694,"x_min":0,"x_max":0,"o":"m 179 271 b 407 553 179 435 257 553 b 510 538 439 553 474 549 l 510 265 b 293 82 442 142 369 82 b 179 271 217 82 179 172 z m 271 -17 b 510 142 365 -17 444 36 l 510 0 l 613 0 l 613 911 l 510 911 l 510 629 b 390 640 489 632 390 640 b 65 261 189 640 65 468 b 271 -17 65 119 136 -17 z "},"e":{"ha":694,"x_min":0,"x_max":0,"o":"m 510 390 l 510 375 l 196 375 b 369 558 213 482 272 558 b 510 390 460 558 510 494 z m 185 299 l 624 299 l 624 319 b 375 651 624 518 547 651 b 76 315 200 651 76 506 b 375 -17 76 129 203 -17 b 613 43 436 -17 515 3 l 613 136 b 385 71 533 93 457 71 b 185 299 269 71 185 174 z "},"f":{"ha":694,"x_min":0,"x_max":0,"o":"m 510 840 b 657 814 535 840 585 832 l 657 917 b 504 928 542 924 504 928 b 233 608 307 928 233 822 l 233 581 l 92 581 l 92 493 l 233 493 l 233 0 l 342 0 l 342 493 l 592 493 l 592 581 l 342 581 l 342 618 b 510 840 342 753 382 840 z "},"g":{"ha":694,"x_min":0,"x_max":0,"o":"m 179 271 b 407 553 179 435 257 553 b 510 538 439 553 474 549 l 510 265 b 293 82 442 142 369 82 b 179 271 217 82 179 172 z m 304 -174 b 65 -97 228 -174 149 -147 l 65 -206 b 299 -261 133 -242 213 -261 b 613 185 576 -261 613 -115 l 613 629 l 510 629 b 390 640 489 632 390 640 b 65 261 189 640 65 468 b 271 -17 65 119 136 -17 b 510 142 365 -17 444 36 l 510 54 b 304 -174 510 -104 450 -174 z "},"h":{"ha":694,"x_min":0,"x_max":0,"o":"m 510 364 l 510 0 l 613 0 l 613 353 b 429 651 613 544 582 651 b 196 493 335 651 257 599 l 196 911 l 86 911 l 86 0 l 196 0 l 196 369 b 418 553 254 493 328 553 b 510 364 503 553 510 469 z "},"i":{"ha":694,"x_min":0,"x_max":0,"o":"m 369 86 l 369 629 l 86 629 l 86 543 l 265 543 l 265 0 l 549 0 l 549 86 z m 315 786 b 385 857 346 786 385 817 b 315 928 385 903 357 928 b 250 857 279 928 250 900 b 315 786 250 819 289 786 z "},"j":{"ha":694,"x_min":0,"x_max":0,"o":"m 521 76 l 521 629 l 146 629 l 146 543 l 413 543 l 413 54 b 244 -174 413 -108 385 -174 b 97 -146 226 -174 176 -164 l 97 -250 b 244 -265 147 -261 197 -265 b 521 76 451 -265 521 -153 z m 467 786 b 538 857 492 786 538 822 b 467 928 538 897 503 928 b 396 857 425 928 396 903 b 467 786 396 817 436 786 z "},"k":{"ha":694,"x_min":0,"x_max":0,"o":"m 222 0 l 222 336 l 526 0 l 672 0 l 364 336 l 663 629 l 526 629 l 222 336 l 222 911 l 114 911 l 114 0 z "},"l":{"ha":694,"x_min":0,"x_max":0,"o":"m 364 86 l 364 911 l 71 911 l 71 825 l 256 825 l 256 0 l 558 0 l 558 86 z "},"m":{"ha":694,"x_min":0,"x_max":0,"o":"m 256 543 b 304 429 307 543 304 465 l 304 0 l 390 0 l 390 347 b 521 543 421 436 457 543 b 564 429 567 543 564 504 l 564 0 l 657 0 l 657 478 b 553 651 657 575 635 651 b 390 478 468 651 408 551 l 390 510 b 288 651 390 588 361 651 b 131 489 233 651 181 597 l 131 629 l 38 629 l 38 0 l 131 0 l 131 364 b 256 543 156 432 197 543 z "},"n":{"ha":694,"x_min":0,"x_max":0,"o":"m 510 364 l 510 0 l 613 0 l 613 353 b 429 651 613 544 582 651 b 196 493 335 651 257 599 l 196 629 l 86 629 l 86 0 l 196 0 l 196 369 b 418 553 254 493 328 553 b 510 364 503 553 510 469 z "},"o":{"ha":694,"x_min":0,"x_max":0,"o":"m 163 315 b 347 558 163 458 221 558 b 532 315 474 558 532 464 b 347 71 532 175 471 71 b 163 315 225 71 163 178 z m 646 315 b 347 651 646 513 528 651 b 49 315 165 651 49 506 b 347 -17 49 129 167 -17 b 646 315 525 -17 646 126 z "},"p":{"ha":694,"x_min":0,"x_max":0,"o":"m 288 82 b 185 92 288 82 271 85 l 185 364 b 401 549 253 488 325 549 b 515 358 483 549 515 458 b 288 82 515 208 431 82 z m 304 -11 b 629 375 500 -11 629 168 b 424 651 629 524 558 651 b 185 489 329 651 250 597 l 185 629 l 82 629 l 82 -244 l 185 -244 l 185 0 b 304 -11 247 0 263 -11 z "},"q":{"ha":694,"x_min":0,"x_max":0,"o":"m 179 271 b 407 553 179 435 257 553 b 510 538 439 553 474 549 l 510 265 b 293 82 442 142 369 82 b 179 271 217 82 179 172 z m 271 -17 b 510 142 365 -17 444 36 l 510 -244 l 613 -244 l 613 629 l 510 629 b 390 640 489 632 390 640 b 65 261 189 640 65 468 b 271 -17 65 119 136 -17 z "},"r":{"ha":694,"x_min":0,"x_max":0,"o":"m 244 0 l 244 369 b 472 553 313 493 389 553 b 515 549 497 553 511 553 l 515 401 l 613 401 l 613 629 b 499 651 588 643 549 651 b 244 493 393 651 310 599 l 244 629 l 142 629 l 142 0 z "},"s":{"ha":694,"x_min":0,"x_max":0,"o":"m 608 168 b 575 271 608 211 597 246 b 222 478 518 336 222 397 b 364 558 222 538 301 558 b 558 526 425 558 490 549 l 558 618 b 369 651 500 640 438 651 b 114 472 219 651 114 597 b 293 293 114 361 182 335 b 499 157 419 250 499 238 b 347 71 499 92 421 71 b 92 146 261 71 175 96 l 92 32 b 342 -17 178 0 263 -17 b 608 168 503 -17 608 32 z "},"t":{"ha":694,"x_min":0,"x_max":0,"o":"m 315 239 l 315 493 l 597 493 l 597 581 l 315 581 l 315 836 l 211 836 l 211 581 l 54 581 l 54 493 l 211 493 l 211 239 b 444 -17 211 69 282 -17 b 613 28 476 -17 533 -1 l 613 119 b 456 71 558 88 506 71 b 315 239 353 71 315 131 z "},"u":{"ha":694,"x_min":0,"x_max":0,"o":"m 185 265 l 185 629 l 82 629 l 82 276 b 265 -17 82 93 114 -17 b 499 142 356 -17 433 36 l 499 0 l 608 0 l 608 629 l 499 629 l 499 265 b 276 82 440 142 367 82 b 185 265 196 82 185 164 z "},"v":{"ha":694,"x_min":0,"x_max":0,"o":"m 569 629 l 353 131 l 136 629 l 17 629 l 293 0 l 401 0 l 678 629 z "},"w":{"ha":694,"x_min":0,"x_max":0,"o":"m 336 493 l 342 493 l 364 407 l 483 0 l 581 0 l 683 629 l 603 629 b 526 157 578 472 554 311 l 510 250 l 396 629 l 299 629 l 201 250 l 185 157 l 168 250 l 108 629 l 11 629 l 114 0 l 217 0 b 336 493 256 165 304 321 z "},"x":{"ha":694,"x_min":0,"x_max":0,"o":"m 667 0 l 407 342 l 624 629 l 504 629 l 347 418 l 185 629 l 49 629 l 282 331 l 32 0 l 151 0 l 342 250 l 532 0 z "},"y":{"ha":694,"x_min":0,"x_max":0,"o":"m 319 28 b 103 -174 282 -83 221 -174 b 17 -162 103 -174 82 -169 l 17 -256 b 103 -265 82 -262 103 -265 b 433 43 303 -265 349 -154 l 678 629 l 569 629 l 375 157 l 146 629 l 28 629 z "},"z":{"ha":694,"x_min":0,"x_max":0,"o":"m 613 97 l 211 97 l 603 543 l 603 629 l 86 629 l 86 543 l 461 543 l 76 97 l 76 0 l 613 0 z "},"{":{"ha":694,"x_min":0,"x_max":0,"o":"m 538 840 l 624 840 l 624 928 l 538 928 b 293 765 385 928 293 901 b 331 532 293 676 331 553 b 168 401 331 440 267 401 l 119 401 l 119 315 l 168 315 b 331 190 269 315 331 282 b 293 -49 331 99 293 -29 b 538 -211 293 -178 394 -211 l 624 -211 l 624 -125 l 538 -125 b 396 -37 457 -125 396 -101 b 433 185 396 11 433 131 b 310 358 433 257 393 315 b 433 532 393 401 433 460 b 396 760 436 524 390 814 b 538 840 396 825 450 840 z "},"|":{"ha":694,"x_min":0,"x_max":0,"o":"m 304 900 l 304 -28 l 390 -28 l 390 900 z "},"}":{"ha":694,"x_min":0,"x_max":0,"o":"m 157 -125 l 71 -125 l 71 -211 l 157 -211 b 407 -49 304 -211 407 -181 b 364 185 397 -4 364 185 b 526 315 364 282 426 315 l 575 315 l 575 401 l 526 401 b 364 532 433 401 364 446 b 369 569 364 554 365 565 b 407 765 394 656 407 722 b 157 928 407 903 314 928 l 71 928 l 71 840 l 157 840 b 299 760 250 840 299 826 b 261 532 299 700 261 597 b 385 358 261 460 301 401 b 261 185 301 315 261 257 l 265 160 b 271 103 269 143 271 125 b 299 -37 289 -12 299 -60 b 157 -125 299 -104 228 -125 z "},"~":{"ha":694,"x_min":0,"x_max":0,"o":"m 185 331 b 293 299 210 331 246 321 b 493 211 383 240 450 211 b 663 396 600 211 663 292 l 663 401 l 592 401 l 592 396 b 510 299 592 356 563 299 b 407 331 481 299 447 308 b 196 424 301 392 232 424 b 32 239 94 424 32 339 l 32 228 l 97 228 l 97 239 b 185 331 97 286 139 331 z "},"‥":{"ha":1389,"x_min":0,"x_max":0,"o":"m 956 433 l 988 407 l 1096 407 l 1124 433 l 1124 549 l 1096 575 l 988 575 l 956 549 z m 261 433 l 293 407 l 401 407 l 433 433 l 433 543 l 401 575 l 293 575 l 261 543 z "},"…":{"ha":1389,"x_min":0,"x_max":0,"o":"m 613 433 l 635 407 l 749 407 l 776 433 l 776 549 l 749 569 l 635 569 l 613 549 z m 1069 433 l 1096 407 l 1204 407 l 1232 433 l 1232 549 l 1210 569 l 1096 569 l 1069 549 z m 146 433 l 179 407 l 282 407 l 315 433 l 315 549 l 282 575 l 179 575 l 146 549 z "},"※":{"ha":1389,"x_min":0,"x_max":0,"o":"m 803 86 b 694 196 803 146 757 196 b 586 86 635 196 586 149 b 694 -22 586 29 638 -22 b 803 86 757 -22 803 26 z m 396 493 b 288 608 396 554 347 608 b 179 493 224 608 179 554 b 288 385 179 436 226 385 b 396 493 344 385 396 436 z m 1204 493 b 1096 608 1204 554 1156 608 b 982 493 1031 608 982 558 b 1096 385 982 433 1035 385 b 1204 493 1153 385 1204 436 z m 586 890 b 694 781 586 833 638 781 b 803 890 757 781 803 831 b 694 999 803 954 758 999 b 586 890 635 999 586 953 z m 201 1036 l 151 988 l 646 493 l 151 -6 l 196 -49 l 694 444 l 1193 -49 l 1238 -6 l 743 493 l 1238 988 l 1193 1036 l 694 543 z "},"♪":{"ha":1389,"x_min":0,"x_max":0,"o":"m 310 -6 b 450 -142 310 -87 367 -142 b 732 163 614 -142 732 -8 l 732 863 b 1025 553 842 792 1025 700 b 879 315 1025 488 976 410 l 906 288 b 1090 569 1029 396 1090 490 b 1058 700 1090 619 1081 664 b 846 928 1026 750 954 826 b 711 1118 754 1019 761 1001 l 663 1118 l 663 174 l 553 185 b 310 -6 431 185 310 113 z "},"、":{"ha":1389,"x_min":0,"x_max":0,"o":"m 299 -119 l 413 -28 b 190 228 354 56 281 142 l 97 146 b 299 -119 226 -10 221 14 z "},"。":{"ha":1389,"x_min":0,"x_max":0,"o":"m 353 54 b 256 -43 353 -3 313 -43 b 157 54 203 -43 157 3 b 256 151 157 101 203 151 b 353 54 313 151 353 104 z m 71 54 b 256 -131 71 -46 156 -131 b 439 54 356 -131 439 -46 b 256 239 439 154 356 239 b 71 54 156 239 71 154 z "},"〃":{"ha":1389,"x_min":0,"x_max":0,"o":"m 956 771 l 814 792 l 657 239 l 765 228 z m 504 233 l 694 776 l 553 792 l 396 250 z "},"〄":{"ha":1389,"x_min":0,"x_max":0,"o":"m 429 288 b 538 60 429 178 538 160 b 461 0 538 24 506 0 b 364 38 432 0 400 13 b 131 532 221 140 131 286 b 222 803 131 617 174 733 b 689 1053 322 947 460 1031 l 689 1118 b 65 472 314 1088 65 867 b 467 -71 65 239 235 -71 b 592 6 526 -71 564 -39 b 499 288 676 133 499 178 b 581 369 499 340 531 369 b 663 256 642 369 663 324 l 722 256 l 722 592 b 857 549 768 558 788 549 b 1025 732 968 549 1025 625 l 1025 939 b 1247 472 1157 835 1247 694 b 1215 304 1247 436 1238 381 b 694 -60 1136 88 976 -39 l 694 -131 b 1318 515 1064 -99 1318 128 b 1292 663 1318 538 1310 586 b 960 1053 1260 851 1119 968 l 956 732 b 840 608 956 663 908 608 b 722 732 767 608 738 663 l 657 732 l 657 413 b 569 439 625 431 594 439 b 429 288 483 439 429 371 z "},"々":{"ha":1389,"x_min":0,"x_max":0,"o":"m 125 342 b 222 250 168 310 200 279 b 543 629 418 418 367 375 l 911 629 b 700 336 868 561 797 463 b 521 444 621 386 561 422 l 456 358 b 846 71 700 201 603 268 l 922 168 l 792 276 l 944 461 b 1090 663 988 508 1036 576 l 1004 749 l 988 738 l 613 738 b 700 906 642 785 671 840 l 569 956 b 125 342 456 700 315 501 z "},"〆":{"ha":1389,"x_min":0,"x_max":0,"o":"m 672 575 l 364 304 b 521 624 443 482 496 588 b 558 657 539 646 551 657 b 672 575 610 657 635 608 z m 549 765 b 456 726 513 765 481 751 b 256 325 413 676 346 542 b 146 136 219 249 182 186 l 239 43 b 586 369 333 138 449 246 l 749 499 b 831 385 767 485 794 446 l 939 472 b 840 581 914 504 881 540 l 1014 722 b 1204 868 1092 781 1113 803 l 1101 965 b 765 657 989 863 876 761 b 549 765 725 693 642 765 z "},"〇":{"ha":1389,"x_min":0,"x_max":0,"o":"m 1178 499 b 694 11 1178 233 961 11 b 206 499 428 11 206 231 b 694 982 206 767 425 982 b 1178 499 960 982 1178 764 z m 82 493 b 694 -119 82 156 357 -119 b 1303 493 1028 -119 1303 158 b 694 1101 1303 828 1026 1101 b 82 493 360 1101 82 826 z "},"〈":{"ha":1389,"x_min":0,"x_max":0,"o":"m 1210 -146 l 1303 -103 l 1014 493 l 1307 1074 l 1221 1124 l 900 493 z "},"〉":{"ha":1389,"x_min":0,"x_max":0,"o":"m 82 -97 l 174 -142 l 493 489 l 179 1133 l 92 1090 l 379 489 z "},"《":{"ha":1389,"x_min":0,"x_max":0,"o":"m 1329 -108 l 1058 489 l 1340 1079 l 1253 1124 l 956 489 l 1243 -151 z m 1074 -114 l 797 489 l 1079 1090 l 999 1133 l 694 489 l 988 -151 z "},"》":{"ha":1389,"x_min":0,"x_max":0,"o":"m 54 -97 l 142 -142 l 439 493 l 146 1133 l 60 1090 l 331 493 z m 310 -103 l 396 -146 l 694 493 l 401 1133 l 315 1096 l 586 493 z "},"「":{"ha":1389,"x_min":0,"x_max":0,"o":"m 1010 108 l 1010 993 l 1303 993 l 1303 1107 l 890 1107 l 890 108 z "},"」":{"ha":1389,"x_min":0,"x_max":0,"o":"m 92 -11 l 92 -131 l 504 -131 l 504 868 l 385 868 l 385 -11 z "},"『":{"ha":1389,"x_min":0,"x_max":0,"o":"m 1031 944 l 1031 108 l 939 108 l 939 1036 l 1232 1036 l 1232 944 z m 1124 17 l 1124 851 l 1313 851 l 1313 1124 l 846 1124 l 846 17 z "},"』":{"ha":1389,"x_min":0,"x_max":0,"o":"m 157 -54 l 157 38 l 353 38 l 353 879 l 444 879 l 444 -54 z m 71 125 l 71 -142 l 543 -142 l 543 965 l 265 965 l 265 125 z "},"【":{"ha":1389,"x_min":0,"x_max":0,"o":"m 1025 489 b 1292 1069 1025 747 1147 935 l 1292 1118 l 863 1118 l 863 -136 l 1292 -136 l 1292 -82 b 1025 489 1136 60 1025 238 z "},"】":{"ha":1389,"x_min":0,"x_max":0,"o":"m 358 489 b 92 -82 358 200 249 60 l 92 -131 l 532 -131 l 532 1113 l 92 1113 l 92 1069 b 358 489 258 897 358 756 z "},"〒":{"ha":1389,"x_min":0,"x_max":0,"o":"m 179 592 l 629 592 l 629 -11 l 754 -11 l 754 592 l 1204 592 l 1204 711 l 179 711 z m 179 863 l 1204 863 l 1204 982 l 179 982 z "},"〓":{"ha":1389,"x_min":0,"x_max":0,"o":"m 65 38 l 1318 38 l 1318 250 l 65 250 z m 65 732 l 1318 732 l 1318 944 l 65 944 z "},"〔":{"ha":1389,"x_min":0,"x_max":0,"o":"m 1253 -151 l 1303 -43 l 1019 97 l 1019 879 l 1318 1031 l 1264 1133 l 900 950 l 900 28 z "},"〕":{"ha":1389,"x_min":0,"x_max":0,"o":"m 375 103 l 82 -49 l 131 -151 l 489 32 l 489 950 l 142 1128 l 86 1031 l 375 885 z "},"〜":{"ha":1389,"x_min":0,"x_max":0,"o":"m 1292 532 l 1204 608 b 1031 461 1132 536 1074 486 b 939 433 1001 443 971 433 b 418 663 815 433 586 663 b 271 624 368 663 318 649 b 86 456 231 601 169 546 l 168 375 b 331 521 265 469 319 517 b 418 543 356 535 386 543 b 483 532 432 543 454 539 b 738 390 490 528 575 481 b 944 319 826 340 854 319 b 1292 532 1106 319 1179 415 z "},"〠":{"ha":1389,"x_min":0,"x_max":0,"o":"m 1172 960 l 211 960 l 211 846 l 1172 846 z m 1172 743 l 211 743 l 211 629 l 624 629 l 624 299 l 760 299 l 760 629 l 1172 629 z m 1204 597 b 1150 575 1190 597 1172 589 l 1178 543 b 1221 558 1196 554 1210 558 b 1275 461 1260 558 1275 510 b 1172 342 1275 389 1238 354 b 667 32 1096 122 961 32 b 211 342 417 32 271 146 b 103 478 131 349 103 399 b 168 558 103 522 126 558 b 201 543 175 558 188 554 l 233 575 b 168 597 204 589 182 597 b 65 456 99 597 65 533 b 185 304 65 364 110 339 b 726 -11 268 82 424 -11 b 1199 304 982 -11 1132 114 b 1318 467 1292 344 1310 360 b 1204 597 1307 540 1288 597 z m 401 319 b 493 472 476 319 510 389 l 532 493 l 521 521 l 478 493 l 456 515 l 483 558 l 461 575 l 433 532 l 407 538 l 407 586 l 375 586 l 375 538 l 353 532 l 319 575 l 299 558 l 325 515 l 304 493 l 256 521 l 244 499 l 288 467 b 276 424 281 444 276 431 b 401 319 276 364 332 319 z m 325 433 b 390 499 315 461 356 499 b 461 429 421 514 461 461 b 379 364 461 383 429 364 b 325 433 346 364 325 396 z m 999 315 b 1101 413 1050 315 1101 360 b 1096 461 1101 435 1100 450 l 1133 489 l 1118 515 l 1085 489 l 1058 510 l 1085 553 l 1058 564 l 1036 521 l 1010 532 l 1010 581 l 976 581 l 976 532 l 950 521 l 922 564 l 900 549 l 928 510 l 906 489 l 868 515 l 851 489 l 890 467 b 879 429 883 449 879 436 b 999 315 879 357 926 315 z m 922 407 b 993 493 922 456 943 493 b 1058 418 1035 493 1058 460 b 988 358 1058 379 1026 358 b 922 407 954 358 932 381 z m 965 276 l 917 276 b 678 136 881 179 807 136 b 461 276 556 136 504 190 l 418 276 b 694 97 461 160 542 97 b 965 276 846 97 914 164 z "},"ぁ":{"ha":1389,"x_min":0,"x_max":0,"o":"m 499 319 b 515 103 499 269 504 197 b 369 0 447 35 399 0 b 331 60 343 0 331 26 b 499 319 331 188 399 236 z m 603 364 b 722 379 643 375 682 379 b 608 206 690 325 651 267 b 603 364 604 260 603 314 z m 896 461 l 911 489 l 803 532 l 771 472 b 608 456 703 468 649 463 b 618 564 608 469 611 506 b 944 624 763 586 872 606 l 944 726 b 635 672 872 708 768 690 b 663 808 653 736 650 757 l 543 831 b 532 765 538 799 538 797 b 526 711 528 743 526 725 b 521 663 526 697 525 681 b 304 672 456 658 383 661 l 299 569 b 510 558 407 563 478 558 b 499 424 510 517 506 458 b 228 60 353 344 228 244 b 358 -92 228 -29 275 -92 b 538 -6 435 -92 506 -33 l 549 -54 l 657 -11 b 635 82 657 8 639 64 b 846 375 738 185 751 213 b 1014 179 939 331 1014 292 b 694 -32 1014 22 876 -25 b 732 -146 717 -82 728 -121 b 1128 174 956 -112 1128 -37 b 896 461 1128 350 1043 401 z "},"あ":{"ha":1389,"x_min":0,"x_max":0,"o":"m 467 467 b 493 190 478 340 486 249 b 299 60 407 104 342 60 b 244 146 256 60 244 101 b 467 467 244 300 364 392 z m 586 521 b 760 553 633 535 692 546 b 597 304 724 494 669 413 b 586 521 590 390 586 463 z m 950 635 l 971 678 l 846 726 l 814 657 b 592 629 746 657 671 647 b 603 781 592 651 596 701 b 1025 851 769 799 910 822 l 1019 976 b 808 922 886 940 815 922 b 624 896 779 922 656 900 b 663 1074 631 950 644 1008 l 521 1096 b 493 885 503 972 493 903 b 217 900 396 885 303 889 l 222 776 b 336 771 251 772 289 771 b 483 776 372 771 422 772 b 472 586 476 682 472 618 b 131 131 293 492 131 374 b 271 -54 131 39 183 -54 b 515 65 369 -54 443 4 l 526 6 l 651 49 b 618 163 640 78 629 115 b 781 369 697 260 751 329 b 896 543 817 410 856 467 b 1113 299 1019 506 1113 444 b 711 6 1113 86 925 39 b 760 -108 729 -26 746 -65 b 1247 293 1032 -71 1247 38 b 950 635 1247 514 1122 564 z "},"ぃ":{"ha":1389,"x_min":0,"x_max":0,"o":"m 1042 82 l 1167 114 b 939 694 1117 338 1040 532 l 836 646 b 1042 82 932 482 997 317 z m 624 151 b 538 222 599 169 569 193 b 461 65 507 132 490 65 b 379 353 417 65 379 293 b 439 711 379 439 399 560 l 310 743 b 271 379 285 613 271 492 b 456 -82 271 215 314 -82 b 624 151 550 -82 581 32 z "},"い":{"ha":1389,"x_min":0,"x_max":0,"o":"m 1128 163 l 1269 206 b 993 933 1215 521 1150 697 l 879 874 b 1128 163 1031 646 1085 476 z m 401 146 b 310 493 344 146 310 413 b 379 956 310 681 332 799 l 233 988 b 185 526 201 810 185 657 b 233 196 185 411 201 301 b 407 -32 260 113 318 -32 b 472 -6 432 -32 454 -24 b 608 265 513 38 558 128 b 504 342 568 288 533 313 b 401 146 478 267 447 146 z "},"ぅ":{"ha":1389,"x_min":0,"x_max":0,"o":"m 439 -32 b 478 -146 461 -82 474 -121 b 1019 310 769 -107 1019 22 b 808 581 1019 456 954 581 b 738 575 779 581 756 579 b 331 499 503 528 367 503 l 358 379 b 786 478 597 444 739 478 b 900 319 876 478 900 415 b 439 -32 900 69 678 10 z m 831 771 b 483 825 697 778 581 796 l 450 711 b 814 657 533 693 654 675 z "},"う":{"ha":1389,"x_min":0,"x_max":0,"o":"m 831 781 b 738 776 794 781 763 781 l 526 732 b 250 678 431 713 347 700 l 276 543 b 831 667 633 642 644 667 b 976 461 942 667 976 578 b 906 256 976 382 953 314 b 379 11 788 96 643 63 b 429 -119 408 -39 425 -83 b 960 119 690 -58 865 22 b 1101 450 1054 221 1101 331 b 831 781 1101 632 1014 781 z m 868 1019 b 424 1074 669 1026 521 1044 l 385 950 b 857 896 464 925 622 907 z "},"ぇ":{"ha":1389,"x_min":0,"x_max":0,"o":"m 722 108 b 1133 -103 735 -122 863 -110 l 1133 6 b 1047 -6 1083 -1 1054 -6 b 890 6 971 -6 919 -1 b 825 108 832 22 838 29 b 726 299 819 228 817 299 b 667 293 701 299 681 297 b 950 549 786 413 882 499 l 879 635 b 364 564 753 588 581 564 l 364 456 b 743 510 531 463 585 479 b 379 142 588 347 465 225 l 211 -22 l 288 -108 b 515 114 372 -24 444 43 b 667 206 556 154 607 206 b 722 108 719 206 722 172 z m 846 792 b 483 840 740 792 621 808 l 461 732 b 836 689 581 710 706 696 z "},"え":{"ha":1389,"x_min":0,"x_max":0,"o":"m 749 168 b 1074 -86 749 -67 835 -86 b 1258 -82 1150 -86 1211 -86 l 1258 54 b 1019 32 1175 40 1096 32 b 857 179 874 32 864 46 b 726 401 846 331 847 401 b 624 379 697 401 664 393 b 1004 722 768 524 896 639 l 928 831 b 276 732 783 772 565 739 l 276 608 b 776 683 393 617 685 658 l 515 418 b 390 288 465 368 438 335 l 97 6 l 196 -97 b 424 146 279 0 356 81 b 678 293 543 250 557 293 b 749 168 744 293 738 263 z m 433 1079 l 401 965 b 874 906 532 933 689 913 l 885 1019 b 433 1079 724 1010 597 1031 z "},"ぉ":{"ha":1389,"x_min":0,"x_max":0,"o":"m 1172 575 b 922 717 1100 629 1017 676 l 868 629 b 1107 489 954 589 1035 543 z m 478 0 b 364 108 446 0 364 78 b 499 211 364 154 419 169 l 499 38 b 478 0 499 15 499 0 z m 510 -108 b 603 22 582 -108 603 -64 l 597 76 l 597 256 b 868 319 706 299 796 319 b 1047 163 971 319 1047 267 b 917 11 1047 78 990 11 b 749 103 836 11 806 46 b 672 32 713 67 686 43 b 911 -92 744 -51 825 -92 b 1161 157 1056 -92 1161 13 b 890 424 1161 311 1046 424 b 597 364 836 424 739 404 l 597 472 b 603 538 597 490 599 513 b 786 581 653 542 714 556 l 781 683 b 603 640 715 658 657 644 b 624 840 610 731 617 797 l 499 846 l 499 629 b 293 635 440 625 372 628 l 288 526 b 499 532 364 526 433 528 b 493 319 494 456 493 385 b 261 103 338 251 261 179 b 510 -108 261 14 421 -108 z "},"お":{"ha":1389,"x_min":0,"x_max":0,"o":"m 1281 743 b 956 928 1168 833 1106 878 l 900 831 l 1085 738 b 1199 640 1117 715 1156 683 z m 407 38 b 256 163 383 38 256 113 b 439 319 256 225 338 256 l 439 76 b 407 38 439 49 429 38 z m 558 483 l 564 717 b 797 771 665 739 743 757 l 797 896 b 564 836 729 871 650 850 b 586 1096 564 918 578 1013 l 439 1096 l 439 825 b 336 819 407 821 372 819 b 179 825 264 819 211 821 l 174 706 b 433 706 235 701 321 701 b 439 439 433 575 435 486 b 185 271 319 378 235 321 b 136 151 153 235 136 194 b 456 -92 136 40 367 -92 b 569 136 571 -92 582 3 l 564 375 b 900 450 715 425 828 450 b 1133 233 1053 450 1133 376 b 950 49 1133 129 1050 49 b 749 174 858 49 800 107 b 657 86 724 144 693 115 b 956 -65 731 -6 818 -65 b 1264 239 1132 -65 1264 64 b 933 558 1264 424 1122 558 b 558 483 793 558 706 526 z "},"か":{"ha":1389,"x_min":0,"x_max":0,"o":"m 1307 375 b 1243 597 1307 443 1286 518 b 1014 885 1203 669 1126 765 l 922 803 b 1172 401 1039 692 1172 567 b 1139 358 1172 368 1164 358 b 1064 369 1139 358 1140 358 b 1074 244 1071 311 1074 269 b 1144 239 1092 240 1115 239 b 1307 375 1257 239 1307 265 z m 586 819 l 657 1031 l 510 1079 b 439 803 492 982 468 889 b 157 771 306 781 211 771 l 179 635 b 407 683 294 664 371 679 b 86 -6 301 431 224 217 l 211 -71 b 543 711 361 235 429 400 b 640 717 575 715 608 717 b 776 597 733 717 776 692 b 592 54 776 464 692 54 b 483 168 550 54 515 121 b 401 76 461 139 433 108 b 613 -86 485 -32 554 -86 b 896 569 796 -86 896 368 b 586 819 896 779 808 829 z "},"が":{"ha":1389,"x_min":0,"x_max":0,"o":"m 1101 358 b 1031 369 1101 358 1081 363 b 1036 250 1035 358 1036 318 b 1096 239 1072 243 1092 239 b 1269 364 1211 239 1269 260 b 1199 597 1269 429 1246 507 b 971 885 1167 658 1090 754 l 896 808 b 1128 396 1051 631 1128 493 b 1101 358 1128 371 1119 358 z m 1004 917 b 1161 776 1065 869 1118 824 l 1232 846 b 1069 988 1192 886 1118 951 z m 754 569 b 575 65 754 479 688 65 b 472 174 550 65 515 101 b 390 82 454 142 426 111 b 603 -82 443 15 511 -82 b 879 564 783 -82 879 365 b 657 825 879 732 817 825 l 569 825 l 640 1042 l 493 1079 b 472 965 493 1047 478 994 l 429 808 b 146 771 263 783 168 771 l 163 629 b 390 683 231 651 307 669 b 65 0 278 379 211 235 l 190 -65 b 526 711 324 185 436 443 b 646 717 563 715 603 717 b 754 569 742 717 754 679 z m 1124 1047 b 1281 906 1178 1004 1231 956 l 1351 982 b 1188 1118 1304 1025 1249 1071 z "},"き":{"ha":1389,"x_min":0,"x_max":0,"o":"m 999 239 l 1069 342 l 976 433 b 890 549 951 458 922 499 b 1047 581 985 571 1036 581 l 1204 629 l 1178 743 l 988 683 b 831 651 933 672 881 663 b 776 765 826 658 808 697 b 1069 831 863 783 961 806 l 1042 950 b 732 874 922 918 818 892 b 672 1085 707 946 686 1017 l 532 1058 b 603 857 543 1011 567 943 b 418 846 508 850 447 846 b 265 851 375 846 324 847 l 265 738 l 439 738 b 646 754 500 738 569 743 b 706 629 686 675 706 633 b 347 603 543 611 424 603 b 146 618 286 603 218 607 l 146 499 b 271 493 182 494 224 493 b 760 532 404 493 568 507 b 879 375 810 460 850 407 b 618 413 782 400 694 413 b 222 168 411 413 222 333 b 331 -11 222 100 258 39 b 760 -86 403 -61 546 -86 b 1058 -71 828 -86 928 -82 l 1053 60 b 717 28 940 38 829 28 b 347 157 551 28 347 38 b 646 315 347 274 492 315 b 999 239 810 315 778 303 z "},"ぎ":{"ha":1389,"x_min":0,"x_max":0,"o":"m 1124 825 l 1193 896 l 1042 1036 l 976 971 b 1124 825 1026 928 1081 875 z m 988 233 l 1053 331 b 874 543 947 428 964 415 l 1053 581 l 1188 618 l 1156 732 b 819 640 1004 682 892 651 b 765 760 794 688 776 728 b 1014 814 871 778 953 796 l 982 928 b 717 863 869 899 782 876 b 651 1074 692 928 669 997 l 515 1036 b 586 851 519 1032 543 971 b 250 840 496 840 383 836 l 256 726 b 629 738 389 719 514 724 b 689 624 647 701 667 664 b 276 597 519 606 382 597 b 136 603 240 597 194 599 l 142 489 b 743 521 460 472 443 483 b 836 379 772 471 804 422 b 618 396 757 390 683 396 b 211 146 411 396 211 336 b 315 -22 211 81 247 25 b 732 -97 388 -72 526 -97 b 1047 -76 811 -97 917 -90 l 1047 49 b 683 22 910 31 789 22 b 342 146 525 22 342 31 b 635 299 342 272 486 299 b 988 233 786 299 815 286 z m 1096 1096 b 1247 950 1139 1064 1189 1015 l 1324 1019 b 1167 1161 1256 1085 1203 1132 z "},"く":{"ha":1389,"x_min":0,"x_max":0,"o":"m 375 521 b 396 543 375 532 382 539 b 1031 950 604 642 844 810 l 933 1069 b 353 646 742 903 549 761 b 233 515 301 618 233 586 b 288 433 233 476 257 460 b 906 -131 588 225 633 176 l 1025 -37 b 401 493 764 229 663 324 b 375 521 383 500 375 510 z "},"ぐ":{"ha":1389,"x_min":0,"x_max":0,"o":"m 379 515 b 401 538 379 526 388 533 b 988 911 528 599 724 724 l 896 1014 b 358 646 714 868 558 757 b 228 515 286 607 228 590 b 288 429 228 475 253 454 b 911 -136 615 190 664 143 l 1025 -37 b 401 489 867 131 604 369 b 379 515 388 500 379 508 z m 1215 890 b 1110 1001 1179 926 1142 969 l 1069 1042 l 999 988 b 1139 825 1029 957 1111 853 z m 1281 939 l 1361 999 b 1210 1156 1318 1046 1268 1097 l 1139 1096 z "},"け":{"ha":1389,"x_min":0,"x_max":0,"o":"m 299 401 b 385 988 299 575 326 771 l 250 1025 b 174 429 200 783 174 585 b 222 -37 174 278 190 122 l 353 -6 b 299 401 317 114 299 250 z m 597 -17 b 672 -131 629 -57 654 -94 b 922 49 792 -69 875 -10 b 1042 667 1060 215 1042 293 b 1113 675 1056 667 1081 669 l 1210 692 b 1297 706 1242 697 1272 701 l 1292 831 b 1042 786 1183 808 1100 793 l 1042 1069 l 896 1069 l 906 771 b 754 765 869 767 819 765 b 532 771 668 765 593 767 l 532 651 b 911 657 656 644 781 646 b 906 331 907 524 906 414 b 597 -17 886 142 758 50 z "},"げ":{"ha":1389,"x_min":0,"x_max":0,"o":"m 206 -54 l 342 -17 b 276 396 301 133 276 261 b 369 965 276 547 308 738 l 233 1004 b 151 418 210 896 151 583 b 206 -54 151 247 165 81 z m 586 -32 b 663 -146 622 -82 649 -121 b 911 38 786 -81 868 -21 b 1031 657 1047 204 1031 288 b 1281 694 1150 671 1233 683 l 1281 819 b 1025 776 1172 797 1086 783 l 1019 1064 l 885 1064 l 896 765 b 689 754 781 758 711 754 b 521 760 631 754 575 756 l 515 635 b 694 635 610 631 669 631 l 900 646 b 896 353 896 522 896 425 b 586 -32 872 126 774 44 z m 1058 1014 b 1183 868 1108 964 1151 915 l 1253 928 b 1124 1069 1221 968 1178 1015 z m 1307 971 l 1378 1031 l 1247 1167 l 1178 1113 z "},"こ":{"ha":1389,"x_min":0,"x_max":0,"o":"m 347 217 b 413 375 347 246 369 299 l 304 429 b 217 201 264 360 217 292 b 315 60 217 147 250 100 b 836 -28 410 1 583 -28 b 982 -22 913 -28 960 -26 l 1188 -11 l 1178 131 b 781 97 1065 108 932 97 b 467 131 654 97 550 108 b 347 217 414 135 347 158 z m 353 944 l 315 831 b 678 781 428 796 533 781 b 1069 814 772 781 903 792 l 1058 939 b 683 900 907 914 781 900 b 353 944 554 900 478 911 z "},"ご":{"ha":1389,"x_min":0,"x_max":0,"o":"m 347 222 b 407 369 347 247 367 297 l 299 424 b 217 206 264 354 217 288 b 928 -22 217 -6 694 -51 l 1178 -6 l 1167 125 b 819 97 1040 107 925 97 b 347 222 604 97 347 96 z m 613 776 b 1036 803 714 776 856 785 l 1031 939 b 613 900 889 914 750 900 b 347 939 522 900 433 914 l 315 819 b 613 776 424 790 522 776 z m 1010 999 b 1156 851 1042 974 1090 924 l 1226 906 b 1079 1053 1201 946 1151 994 z m 1139 1101 b 1286 950 1200 1040 1250 990 l 1361 1014 b 1210 1156 1318 1057 1268 1106 z "},"さ":{"ha":1389,"x_min":0,"x_max":0,"o":"m 1042 288 l 1113 385 b 831 732 989 497 896 613 b 1156 825 914 746 1022 778 l 1118 944 b 781 840 969 894 857 858 b 694 1085 751 901 724 983 l 558 1053 b 651 819 576 981 608 903 b 424 803 575 808 500 803 b 206 819 374 803 300 808 l 201 694 b 385 683 303 688 363 683 b 706 711 461 683 568 693 b 885 456 764 610 824 524 b 689 467 769 463 703 467 b 228 201 443 467 228 401 b 776 -82 228 -33 499 -82 b 1074 -60 863 -82 961 -74 l 1069 65 b 732 38 932 47 818 38 b 353 201 567 38 353 65 b 706 364 353 338 536 364 b 1042 288 856 364 908 342 z "},"ざ":{"ha":1389,"x_min":0,"x_max":0,"o":"m 1019 988 b 1156 846 1042 969 1088 922 l 1226 906 b 1085 1047 1203 951 1128 1019 z m 1019 276 l 1090 375 b 814 722 929 543 933 535 b 1090 803 908 740 1000 767 l 1053 922 b 765 831 947 879 851 849 b 672 1079 725 914 694 996 l 538 1042 b 635 808 560 988 592 910 b 385 792 544 797 461 792 b 190 808 338 792 274 797 l 179 683 b 358 672 274 676 333 672 b 683 700 424 672 532 682 b 857 444 708 660 767 575 b 672 461 781 456 719 461 b 315 379 506 461 388 433 b 206 190 243 318 206 256 b 331 -6 206 122 247 56 b 760 -92 410 -64 554 -92 b 1053 -71 843 -92 940 -85 l 1047 60 b 711 28 917 38 806 28 b 331 196 547 28 331 64 b 678 358 331 322 524 358 b 1019 276 821 358 903 329 z m 1139 1090 b 1286 950 1164 1068 1214 1022 l 1357 1019 l 1210 1156 z "},"し":{"ha":1389,"x_min":0,"x_max":0,"o":"m 1264 379 b 1150 456 1232 393 1193 419 b 640 54 1013 188 843 54 b 439 336 471 54 439 136 b 483 1031 439 492 454 724 l 325 1036 l 310 325 b 629 -71 310 57 390 -71 b 1264 379 967 -71 1118 150 z "},"じ":{"ha":1389,"x_min":0,"x_max":0,"o":"m 743 917 b 890 771 793 874 843 825 l 960 840 b 808 988 876 924 826 974 z m 640 49 b 429 299 471 49 429 110 b 439 549 429 299 428 299 b 456 814 443 672 449 760 l 478 1019 l 319 1031 l 304 515 l 304 288 b 618 -71 304 58 394 -71 b 1069 119 813 -71 983 19 b 1258 369 1117 167 1179 250 b 1139 456 1218 392 1179 419 b 640 49 1042 240 894 49 z m 1113 965 l 950 1107 l 879 1036 b 1031 896 904 1018 954 972 z "},"す":{"ha":1389,"x_min":0,"x_max":0,"o":"m 700 433 b 586 299 694 367 653 299 b 489 444 519 299 489 378 b 592 575 489 507 526 575 b 700 433 654 575 682 501 z m 831 879 b 840 1118 831 938 833 1017 l 700 1118 l 706 874 l 103 851 l 108 722 l 706 765 l 711 597 b 575 672 668 647 622 672 b 379 429 461 672 379 549 b 569 201 379 319 463 201 b 722 282 649 201 671 231 b 336 -17 696 85 546 19 b 401 -142 361 -53 383 -94 b 657 -28 514 -110 599 -71 b 831 369 803 61 850 146 l 831 771 l 1292 771 l 1292 900 b 831 879 1179 900 956 885 z "},"ず":{"ha":1389,"x_min":0,"x_max":0,"o":"m 689 433 b 575 288 683 358 647 288 b 478 429 511 288 478 358 b 581 553 478 486 525 553 b 689 433 644 553 669 490 z m 831 1101 l 689 1101 l 694 857 l 401 840 b 97 836 354 836 253 836 l 97 706 l 694 749 l 694 592 b 553 663 647 639 600 663 b 369 424 446 663 369 533 b 569 190 369 303 451 190 b 700 256 631 190 663 218 b 319 -28 700 64 519 -6 b 390 -151 351 -75 376 -115 b 819 256 629 -87 819 17 l 814 396 l 814 543 l 819 749 l 999 754 l 1281 754 l 1281 874 l 819 857 b 831 1101 825 915 831 1039 z m 1113 900 l 1199 960 l 1058 1113 l 988 1053 z m 1281 965 l 1361 1025 b 1221 1172 1303 1083 1257 1132 l 1144 1118 b 1281 965 1178 1085 1257 1000 z "},"せ":{"ha":1389,"x_min":0,"x_max":0,"o":"m 857 -65 b 1128 -54 857 -65 918 -61 l 1128 71 b 797 54 994 60 883 54 b 538 76 671 54 585 63 b 472 261 458 94 472 139 b 478 575 472 351 474 456 l 879 608 b 868 379 872 460 868 383 b 831 331 868 354 851 331 b 694 385 817 331 771 349 b 667 276 690 353 681 317 b 896 206 757 229 835 206 b 1010 613 1031 206 1010 364 l 1297 624 l 1297 749 b 1014 726 1167 735 1072 726 l 1014 1047 l 874 1047 l 879 717 l 483 683 l 493 956 l 342 956 b 347 678 346 850 347 757 b 86 667 268 671 181 667 l 92 543 l 347 564 l 347 217 b 857 -65 322 -75 540 -65 z "},"ぜ":{"ha":1389,"x_min":0,"x_max":0,"o":"m 1172 831 l 1247 890 b 1107 1042 1207 938 1161 988 l 1042 982 b 1172 831 1049 975 1167 839 z m 999 726 b 993 1047 994 850 993 957 l 857 1047 l 863 717 l 472 683 l 483 950 l 336 950 l 342 672 b 76 663 268 672 136 671 l 82 538 b 342 558 153 544 267 558 b 336 211 338 421 336 306 b 814 -71 336 -79 507 -71 b 1107 -54 857 -71 956 -65 l 1107 76 b 743 49 969 58 849 49 b 461 201 546 49 461 38 b 472 575 461 219 465 343 l 863 603 b 851 375 856 454 851 379 b 814 336 846 353 840 336 b 683 385 800 336 756 353 b 663 265 683 367 676 326 b 868 206 760 225 828 206 b 993 613 1011 206 989 350 b 1121 618 1022 617 1065 618 b 1292 624 1176 618 1233 619 l 1292 749 b 999 726 1200 739 1094 726 z m 1167 1090 b 1303 944 1239 1011 1285 963 l 1378 999 b 1232 1156 1343 1046 1281 1107 z "},"そ":{"ha":1389,"x_min":0,"x_max":0,"o":"m 358 1010 l 364 885 b 814 933 667 906 590 893 b 315 597 672 818 507 706 b 97 581 250 590 176 585 l 108 461 l 640 515 b 478 239 532 429 478 336 b 543 71 478 178 500 121 b 1053 -97 638 -50 824 -92 l 1047 38 b 597 233 831 47 597 68 b 890 526 597 393 736 461 b 1281 549 958 531 1089 538 l 1275 678 b 549 613 1108 653 867 631 b 1019 944 792 756 761 750 l 922 1058 b 358 1010 724 1008 638 1010 z "},"ぞ":{"ha":1389,"x_min":0,"x_max":0,"o":"m 597 217 b 879 515 597 375 729 450 b 1069 532 974 526 1038 532 l 1275 543 l 1269 663 b 526 592 897 622 650 599 l 771 749 b 1004 928 825 778 903 838 l 917 1047 b 353 993 768 1011 581 993 l 353 868 b 808 928 490 875 642 896 b 304 575 650 796 472 678 b 92 569 254 571 182 569 l 97 439 b 624 499 401 475 576 494 b 472 211 522 397 472 301 b 538 54 472 157 494 104 b 1047 -108 626 -61 825 -103 l 1047 28 b 597 217 818 28 597 42 z m 1139 863 l 1221 922 b 1079 1069 1156 988 1108 1038 l 1010 1014 b 1139 863 1044 979 1106 903 z m 1210 1172 l 1139 1113 b 1281 960 1139 1113 1139 1111 l 1357 1025 b 1210 1172 1314 1076 1261 1121 z "},"た":{"ha":1389,"x_min":0,"x_max":0,"o":"m 1004 54 b 776 76 899 54 824 63 b 657 265 665 99 657 136 l 538 276 b 1042 -71 521 -39 718 -71 b 1264 -54 1067 -71 1140 -65 l 1264 76 b 1004 54 1158 63 1072 54 z m 646 651 l 667 532 b 911 558 753 546 840 558 b 1014 564 936 563 971 564 b 1210 558 1075 564 1142 563 l 1215 683 b 890 678 1107 688 999 685 b 646 651 818 678 729 667 z m 558 836 b 629 1036 588 908 607 960 l 489 1079 b 424 819 467 978 446 892 b 157 825 351 815 263 818 l 151 700 b 385 706 181 696 258 699 b 82 -37 294 435 200 197 l 201 -92 b 521 717 346 213 453 482 b 863 776 629 728 743 747 l 857 900 b 558 836 751 871 653 850 z "},"だ":{"ha":1389,"x_min":0,"x_max":0,"o":"m 651 271 l 526 271 b 549 125 531 231 538 183 b 1036 -60 607 -49 789 -60 b 1269 -43 1090 -60 1168 -54 l 1264 82 b 988 60 1158 68 1067 60 b 651 271 767 60 651 60 z m 917 569 b 1210 564 1032 569 1131 568 l 1215 689 l 976 683 b 651 651 897 679 789 669 l 663 543 b 917 569 743 557 844 569 z m 1193 890 b 1036 1025 1147 936 1090 985 l 971 956 b 1118 819 1032 908 1082 863 z m 146 700 b 379 706 240 700 318 701 b 82 -32 250 340 225 264 l 201 -92 b 364 304 296 143 350 275 b 515 717 410 431 478 588 b 857 776 574 721 688 740 l 851 906 b 553 836 735 867 683 858 l 618 1042 l 483 1085 b 413 825 461 1007 432 894 b 293 819 376 821 336 819 b 146 825 239 819 189 821 z m 1096 1074 b 1243 939 1168 1015 1218 971 l 1318 1010 b 1161 1144 1253 1068 1201 1113 z "},"ち":{"ha":1389,"x_min":0,"x_max":0,"o":"m 478 413 b 549 754 492 507 517 621 b 1019 836 729 772 886 800 l 1014 960 b 581 879 835 911 794 917 l 629 1074 l 489 1107 l 439 874 b 157 890 344 867 251 872 l 146 754 b 271 749 178 750 221 749 l 413 754 b 336 282 381 576 354 419 l 429 222 b 890 433 543 336 693 433 b 1074 271 996 433 1074 381 b 840 54 1074 142 968 86 b 390 17 754 29 604 17 b 418 -108 401 -8 411 -50 b 1204 256 835 -114 1204 -79 b 906 543 1204 432 1082 543 b 478 413 740 543 611 485 z "},"ぢ":{"ha":1389,"x_min":0,"x_max":0,"o":"m 1085 1074 l 1019 1014 b 1150 863 1056 978 1100 928 l 1226 922 b 1085 1074 1190 967 1126 1026 z m 478 413 b 549 760 503 557 526 674 b 1014 825 697 771 851 793 l 1014 956 b 581 874 888 915 743 888 b 635 1074 600 942 624 1004 l 489 1107 b 444 868 460 944 444 868 b 157 885 368 868 272 874 l 146 754 b 261 749 171 750 211 749 l 418 749 b 336 271 389 622 361 463 l 413 222 b 906 429 549 342 699 429 b 1074 265 1003 429 1074 361 b 857 49 1074 140 972 75 b 379 17 778 26 618 17 b 407 -108 397 -31 407 -72 b 1047 0 722 -108 935 -72 b 1204 276 1153 72 1204 164 b 896 543 1204 440 1068 543 b 478 413 715 543 679 501 z m 1150 1113 b 1297 960 1215 1047 1265 996 l 1367 1025 b 1221 1172 1324 1075 1271 1129 z "},"っ":{"ha":1389,"x_min":0,"x_max":0,"o":"m 456 -76 b 1124 347 806 -61 1124 33 b 808 672 1124 543 1001 672 l 738 672 l 483 624 b 211 586 464 624 224 589 l 239 467 b 706 558 539 528 694 558 b 808 569 756 565 790 569 b 999 353 935 569 999 489 b 879 136 999 267 958 194 b 433 43 796 75 647 43 b 456 -76 440 7 456 -33 z "},"つ":{"ha":1389,"x_min":0,"x_max":0,"o":"m 825 896 b 700 890 767 896 725 894 l 385 836 l 103 797 l 125 651 b 678 765 404 713 588 751 b 836 781 750 776 804 781 b 1107 499 1015 781 1107 681 b 1031 293 1107 422 1081 354 b 369 108 907 143 674 108 b 396 -28 383 61 392 15 b 1053 142 711 -17 929 40 b 1238 510 1176 239 1238 361 b 825 896 1238 761 1086 896 z "},"づ":{"ha":1389,"x_min":0,"x_max":0,"o":"m 851 885 b 749 879 804 885 771 883 l 450 836 b 97 786 335 818 217 800 l 125 651 b 851 771 522 731 765 771 b 1101 515 1021 771 1101 686 b 950 211 1101 389 1051 288 b 369 97 849 135 656 97 b 396 -37 381 72 389 28 b 1058 136 714 -24 935 35 b 1232 504 1174 233 1232 356 b 851 885 1232 740 1092 885 z m 1172 851 l 1243 917 b 1193 965 1243 940 1215 951 l 1090 1058 l 1019 993 b 1172 851 1051 972 1150 881 z m 1372 1031 b 1215 1167 1326 1076 1269 1126 l 1144 1101 b 1297 960 1189 1065 1250 1001 z "},"て":{"ha":1389,"x_min":0,"x_max":0,"o":"m 640 390 b 678 538 640 438 653 488 b 965 840 733 671 826 747 l 1292 863 l 1286 993 b 103 885 797 935 403 899 l 114 743 l 493 792 l 738 819 b 515 369 601 678 515 576 b 586 146 515 279 539 204 b 1090 -82 682 3 849 -54 l 1096 60 b 640 390 850 75 640 143 z "},"で":{"ha":1389,"x_min":0,"x_max":0,"o":"m 976 667 b 1096 510 1053 569 1092 517 l 1178 558 b 1058 726 1150 629 1124 639 z m 1124 765 b 1247 597 1196 668 1236 611 l 1329 657 b 1204 819 1310 690 1233 796 z m 493 364 b 564 146 493 278 517 204 b 1069 -76 689 -4 793 -42 l 1074 65 b 618 385 821 71 618 156 b 657 564 618 453 632 514 b 944 846 738 708 788 742 l 1269 874 l 1264 1004 b 760 944 942 964 774 944 b 86 890 528 919 303 901 l 97 754 b 396 792 289 779 389 792 l 726 825 b 493 364 596 707 493 586 z "},"と":{"ha":1389,"x_min":0,"x_max":0,"o":"m 564 553 b 211 185 379 472 211 382 b 261 54 211 142 229 97 b 819 -97 342 -74 572 -97 b 1183 -82 867 -97 988 -93 l 1178 54 b 976 32 1101 40 1035 32 b 781 28 944 28 878 28 b 336 190 543 28 336 28 b 390 310 336 233 354 274 b 663 461 438 360 529 411 b 1161 597 717 486 882 532 l 1113 732 b 672 592 881 660 733 614 b 663 754 665 686 663 740 b 678 1079 663 840 667 949 l 532 1074 b 526 917 528 1031 526 978 b 564 553 526 788 546 632 z "},"ど":{"ha":1389,"x_min":0,"x_max":0,"o":"m 922 993 b 1058 831 965 946 1011 892 l 1133 890 b 993 1047 1122 904 1076 957 z m 201 190 b 424 -49 201 60 289 -17 b 819 -86 500 -74 632 -86 b 1183 -71 863 -86 985 -82 l 1178 54 b 786 28 1040 36 910 28 b 325 201 535 28 325 31 b 379 319 325 244 343 283 b 667 483 440 381 536 436 b 1144 608 707 497 865 540 l 1107 738 b 663 597 1053 724 904 676 b 646 754 651 669 646 722 b 663 1079 646 794 651 901 l 515 1074 b 553 558 508 857 515 758 b 201 190 367 468 201 390 z m 1204 939 l 1286 1004 b 1139 1156 1257 1049 1183 1124 l 1064 1096 b 1204 939 1108 1074 1161 992 z "},"な":{"ha":1389,"x_min":0,"x_max":0,"o":"m 575 92 b 706 179 575 140 647 179 b 868 146 756 179 810 168 b 726 0 875 32 831 0 b 575 92 658 0 575 29 z m 993 97 b 1221 -43 1047 72 1124 25 l 1297 86 b 1128 174 1250 110 1167 174 b 993 222 1103 199 1047 208 b 982 456 986 338 982 415 b 999 624 982 510 988 565 l 863 635 b 851 499 856 576 851 531 b 868 256 851 485 857 404 b 722 276 814 269 765 276 b 456 86 574 276 456 214 b 743 -103 456 -36 619 -103 b 993 97 901 -103 978 -58 z m 1221 618 l 1275 743 b 831 868 1010 833 1078 831 l 803 754 b 1221 618 1060 690 1031 708 z m 304 840 b 146 851 293 840 240 844 l 146 726 b 358 726 207 722 279 722 b 65 82 286 517 189 303 l 185 17 b 499 738 357 315 360 340 b 738 776 539 742 618 754 l 732 900 b 543 863 647 881 618 881 b 608 1047 575 960 597 1022 l 467 1085 b 396 846 456 1031 432 951 b 304 840 367 842 336 840 z "},"に":{"ha":1389,"x_min":0,"x_max":0,"o":"m 646 331 l 521 336 b 1025 -17 521 47 697 -17 b 1269 -6 1025 -17 1103 -12 l 1264 136 b 1031 108 1181 118 1103 108 b 646 331 788 108 646 122 z m 1004 776 b 1193 771 1069 776 1132 775 l 1199 896 b 999 900 1138 900 1071 900 b 569 857 857 900 714 886 l 581 732 b 1004 776 736 761 878 776 z m 418 993 l 276 1031 b 206 342 229 781 206 551 b 239 -92 206 140 229 93 l 375 -60 b 336 347 350 67 336 203 b 418 993 336 622 357 667 z "},"ぬ":{"ha":1389,"x_min":0,"x_max":0,"o":"m 1047 92 b 885 17 1004 42 950 17 b 749 103 818 17 749 39 b 846 157 749 139 804 157 b 1047 92 921 157 988 131 z m 288 467 b 407 239 328 383 367 307 b 261 92 349 142 301 92 b 206 206 211 92 206 140 b 288 467 206 329 228 358 z m 569 672 b 472 364 556 593 522 490 b 379 564 447 411 415 478 b 569 672 444 629 460 631 z m 1107 375 b 1090 196 1107 339 1101 279 b 868 256 1004 236 929 256 b 635 86 747 256 635 190 b 885 -82 635 -22 772 -82 b 1139 28 1017 -82 1065 -51 l 1238 -76 l 1329 28 l 1204 125 b 1243 379 1229 201 1243 285 b 825 819 1243 674 1097 819 b 732 814 785 819 754 818 l 786 1025 l 646 1064 b 592 786 638 990 610 856 b 353 672 475 747 438 728 b 315 911 339 708 326 788 l 179 900 b 250 592 197 776 221 675 b 97 190 149 458 97 324 b 256 -28 97 78 154 -28 b 347 6 285 -28 315 -17 b 483 146 376 19 422 67 b 521 97 483 146 496 133 l 603 201 l 549 261 b 706 706 606 389 676 582 b 808 711 735 710 768 711 b 1107 375 1015 711 1107 603 z "},"ね":{"ha":1389,"x_min":0,"x_max":0,"o":"m 1042 103 b 879 32 1007 42 969 32 b 743 114 817 32 743 54 b 831 163 743 151 790 163 b 1042 103 924 163 969 146 z m 1096 450 b 1079 206 1096 392 1090 311 b 857 261 1003 242 929 261 b 635 103 735 261 635 219 b 911 -76 635 -18 788 -76 b 1144 38 1040 -76 1081 -33 b 1264 -65 1188 11 1226 -28 l 1340 43 b 1193 146 1308 68 1258 103 b 1226 429 1215 240 1226 335 b 917 846 1226 699 1157 846 b 743 797 863 846 804 829 b 444 575 689 768 589 694 l 444 646 b 586 771 513 707 561 749 l 526 857 l 456 831 b 461 928 460 856 461 888 l 483 1079 l 336 1090 l 325 797 b 119 781 246 786 178 781 l 125 657 b 325 689 215 668 282 678 l 319 467 l 54 190 l 136 86 b 201 163 176 136 197 163 l 319 304 l 319 -92 l 444 -92 b 439 429 440 -24 439 150 b 928 738 663 635 826 738 b 1096 450 1071 738 1096 625 z "},"の":{"ha":1389,"x_min":0,"x_max":0,"o":"m 618 863 b 510 439 596 718 560 576 b 342 168 456 306 410 168 b 228 418 258 168 228 324 b 618 863 228 674 379 807 z m 667 38 b 726 -86 689 6 708 -36 b 1269 489 1031 -19 1269 143 b 732 976 1269 803 1038 976 b 103 413 382 976 103 750 b 336 28 103 249 179 28 b 439 76 379 28 414 44 b 749 874 615 253 679 500 b 1128 483 975 867 1128 722 b 667 38 1128 178 942 100 z "},"は":{"ha":1389,"x_min":0,"x_max":0,"o":"m 276 390 b 369 982 276 557 308 754 l 228 1031 l 185 825 b 146 353 160 676 146 519 b 185 -97 146 219 160 69 l 319 -65 b 276 390 290 119 276 271 z m 608 125 b 765 201 608 186 696 201 b 911 185 797 201 846 196 b 765 32 911 67 876 32 b 608 125 694 32 608 60 z m 1036 125 b 1221 -11 1097 85 1160 39 l 1307 97 b 1031 256 1199 174 1107 226 b 1025 683 1024 447 1021 589 b 1238 726 1057 688 1129 701 l 1232 857 b 1025 797 1131 825 1061 804 b 1031 1053 1025 917 1026 1003 l 890 1053 l 890 851 l 896 781 b 738 776 853 776 799 776 b 499 792 706 776 625 781 l 499 667 b 663 657 564 660 619 657 b 896 667 731 657 810 660 l 906 293 b 776 304 833 300 790 304 b 499 136 626 304 499 261 b 792 -76 499 6 644 -76 b 1036 125 961 -76 1028 -28 z "},"ば":{"ha":1389,"x_min":0,"x_max":0,"o":"m 271 353 b 379 971 271 515 307 721 l 233 1019 b 146 358 176 757 146 625 b 185 -97 146 196 160 44 l 315 -76 b 271 353 286 86 271 229 z m 618 119 b 771 196 618 183 700 196 b 906 174 807 196 851 188 b 781 22 906 46 893 22 b 618 119 697 22 618 46 z m 1036 114 b 1221 -17 1113 67 1174 24 l 1307 92 b 1031 239 1206 157 1114 207 b 1019 667 1024 406 1019 547 b 1247 711 1051 671 1128 686 l 1238 840 b 1019 781 1188 822 1114 803 l 1025 1031 l 890 1036 l 896 771 b 689 765 867 767 797 765 b 504 776 660 765 599 769 l 499 657 b 706 646 607 650 676 646 b 896 651 771 646 835 647 b 906 282 896 629 899 506 b 765 299 847 293 801 299 b 499 119 624 299 499 236 b 803 -86 499 -10 650 -86 b 1036 114 963 -86 1028 -37 z m 1053 1010 b 1183 863 1082 985 1125 935 l 1253 922 b 1118 1069 1213 969 1168 1019 z m 1307 965 l 1383 1025 b 1243 1167 1311 1101 1265 1149 l 1172 1113 b 1307 965 1219 1065 1269 1013 z "},"ぱ":{"ha":1389,"x_min":0,"x_max":0,"o":"m 271 379 b 375 971 271 571 307 768 l 228 1019 b 142 331 183 815 142 599 b 185 -103 142 222 156 78 l 315 -82 b 271 379 286 114 271 267 z m 608 108 b 765 196 619 175 679 196 b 900 174 801 196 846 188 b 781 17 907 57 888 17 b 608 108 701 17 633 40 z m 1031 119 b 1215 -22 1107 72 1168 25 l 1307 92 b 1031 244 1231 146 1139 197 b 1014 672 1019 371 1014 513 b 1247 711 1115 683 1193 697 l 1226 840 b 1019 786 1132 814 1101 814 b 1025 1031 1019 894 1021 976 l 885 1042 l 885 771 b 722 765 824 767 769 765 b 504 781 650 765 576 769 l 499 651 b 624 646 531 647 574 646 b 890 657 656 646 746 650 b 900 282 886 614 889 488 b 765 299 842 293 797 299 b 499 119 624 299 499 236 b 797 -86 499 -8 649 -86 b 1031 119 956 -86 1031 -40 z m 1292 1019 b 1215 944 1292 976 1258 944 b 1139 1019 1172 944 1139 976 b 1215 1096 1139 1063 1172 1096 b 1292 1019 1258 1096 1292 1063 z m 1064 1019 b 1215 868 1064 939 1135 868 b 1361 1019 1296 868 1361 942 b 1215 1167 1361 1099 1294 1167 b 1064 1019 1132 1167 1064 1101 z "},"ひ":{"ha":1389,"x_min":0,"x_max":0,"o":"m 1014 999 l 874 971 b 900 651 892 856 900 749 b 553 71 900 331 833 71 b 299 304 404 71 299 163 b 499 760 299 496 401 624 b 667 911 560 821 617 871 l 586 1019 b 276 944 543 1007 317 944 b 119 939 251 940 199 939 l 136 803 b 444 874 204 814 307 838 b 228 543 332 725 260 615 b 168 293 188 453 168 369 b 538 -65 168 82 328 -65 b 825 28 650 -65 746 -33 b 1004 678 1006 165 1017 317 b 1226 228 1121 400 1086 447 l 1346 331 b 1014 999 1176 526 1099 688 z "},"び":{"ha":1389,"x_min":0,"x_max":0,"o":"m 1010 982 l 874 950 b 906 646 896 849 906 747 b 549 49 906 319 847 49 b 299 282 399 49 299 133 b 667 896 299 540 510 760 l 581 1004 b 119 917 450 954 297 924 l 131 786 b 456 851 236 797 343 819 b 168 265 318 697 168 510 b 538 -82 168 49 318 -82 b 803 -6 632 -82 719 -56 b 1010 624 988 108 1010 285 b 1226 206 1074 460 1129 340 l 1340 304 b 1010 982 1174 494 1107 681 z m 1047 1014 b 1172 857 1124 917 1165 864 l 1247 917 b 1113 1064 1189 989 1144 1039 z m 1372 1019 b 1243 1167 1336 1069 1293 1119 l 1172 1113 l 1297 956 z "},"ぴ":{"ha":1389,"x_min":0,"x_max":0,"o":"m 1019 988 l 874 960 b 900 629 892 815 900 706 b 553 54 900 294 833 54 b 304 293 406 54 304 149 b 342 483 304 365 317 429 b 657 900 394 633 515 764 l 586 1004 b 125 917 407 944 354 932 l 136 792 b 439 851 222 796 324 815 b 293 640 371 761 322 690 b 168 271 229 531 168 415 b 549 -76 168 51 326 -76 b 819 6 654 -76 743 -49 b 1004 651 1010 126 1017 292 b 1238 206 1069 463 1128 353 l 1346 325 b 1019 988 1163 524 1089 690 z m 1303 1014 b 1226 939 1303 971 1269 939 b 1150 1014 1183 939 1150 971 b 1226 1090 1150 1057 1183 1090 b 1303 1014 1269 1090 1303 1057 z m 1074 1014 b 1226 863 1074 939 1151 863 b 1372 1014 1307 863 1372 936 b 1226 1161 1372 1093 1306 1161 b 1074 1014 1149 1161 1074 1094 z "},"ふ":{"ha":1389,"x_min":0,"x_max":0,"o":"m 493 413 b 65 125 313 282 171 186 l 136 -11 b 553 304 276 93 419 194 z m 928 450 b 1036 336 1000 378 1036 340 b 1139 201 1058 311 1092 267 b 1215 17 1168 143 1193 82 l 1351 82 b 1014 526 1240 311 1193 378 z m 917 174 b 743 483 917 328 846 399 b 558 672 689 526 626 589 l 456 613 b 586 461 488 565 532 515 b 776 185 707 356 776 322 b 667 38 776 111 736 38 b 483 136 631 38 569 71 b 424 28 465 96 446 60 b 689 -82 536 -44 624 -82 b 917 174 814 -82 917 40 z m 499 1090 l 413 1019 b 635 863 474 943 549 892 l 564 814 l 640 726 b 906 857 724 776 811 821 l 885 956 b 814 950 860 951 836 950 b 499 1090 656 950 593 996 z "},"ぶ":{"ha":1389,"x_min":0,"x_max":0,"o":"m 54 108 l 136 -22 b 543 293 190 14 326 119 l 483 401 l 299 265 b 54 108 221 217 115 149 z m 1204 17 l 1340 76 b 1004 521 1229 317 1210 336 l 911 439 b 1204 17 1054 310 1122 225 z m 407 22 b 683 -86 508 -50 600 -86 b 906 174 819 -86 906 26 b 722 478 906 324 835 386 b 553 672 664 536 592 618 l 450 603 b 515 515 486 553 508 522 b 771 168 565 447 771 299 b 657 32 771 99 724 32 b 472 125 617 32 556 64 b 407 22 456 92 433 58 z m 1118 781 l 1199 846 b 1058 1004 1192 857 1144 910 l 988 956 b 1118 781 1031 904 1081 836 z m 493 1079 l 407 1014 b 640 857 449 943 535 878 l 558 803 l 629 711 b 885 840 708 769 794 811 l 879 956 b 781 944 829 949 794 944 b 493 1079 639 944 569 989 z m 1253 885 l 1335 944 l 1193 1107 l 1118 1047 z "},"ぷ":{"ha":1389,"x_min":0,"x_max":0,"o":"m 493 401 b 65 108 324 278 181 181 l 142 -17 b 543 299 326 117 460 222 z m 1215 17 l 1346 76 b 1010 521 1224 328 1207 347 l 922 433 b 1215 17 1040 322 1150 183 z m 911 174 b 738 483 911 286 853 389 b 564 672 606 590 668 535 l 461 608 b 521 521 486 565 507 535 b 776 168 607 417 776 319 b 672 32 776 101 744 32 b 478 119 622 32 557 61 b 424 17 467 88 449 53 b 683 -92 529 -56 615 -92 b 911 174 826 -92 911 26 z m 1226 917 b 1150 840 1226 874 1193 840 b 1074 917 1117 840 1074 879 b 1150 993 1074 960 1107 993 b 1226 917 1193 993 1226 960 z m 999 917 b 1150 771 999 840 1072 771 b 1297 917 1229 771 1297 838 b 1150 1069 1297 1000 1232 1069 b 999 917 1069 1069 999 1001 z m 504 1074 l 413 1010 b 640 851 479 921 518 888 l 564 803 l 640 717 b 900 840 756 799 769 806 l 885 944 b 803 939 867 940 839 939 b 504 1074 647 939 588 983 z "},"へ":{"ha":1389,"x_min":0,"x_max":0,"o":"m 515 689 b 603 640 550 689 579 660 b 1221 60 818 425 925 311 l 1313 179 b 749 667 1032 397 983 439 b 581 819 647 761 592 813 b 515 836 558 831 538 836 b 364 722 468 836 418 799 b 92 418 339 690 247 588 l 201 319 b 433 613 303 435 379 533 b 515 689 468 665 479 689 z "},"べ":{"ha":1389,"x_min":0,"x_max":0,"o":"m 521 667 b 586 635 539 667 561 657 l 786 433 b 1215 43 982 253 1125 122 l 1318 157 b 944 472 1206 240 1082 346 l 657 738 b 521 814 606 793 585 814 b 450 792 499 814 475 806 b 97 396 368 738 158 461 l 211 293 l 489 657 b 521 667 503 664 514 667 z m 851 808 b 999 657 919 740 969 689 l 1064 726 b 917 868 999 792 949 839 z m 976 928 b 1128 781 1060 844 1110 794 l 1204 851 l 1053 999 z "},"ぺ":{"ha":1389,"x_min":0,"x_max":0,"o":"m 515 672 b 586 624 529 672 554 656 l 836 385 b 1221 43 931 299 1058 185 l 1307 163 b 689 706 1138 293 931 474 b 510 814 632 763 599 814 b 331 672 419 814 388 747 b 92 407 294 625 215 538 l 206 304 l 478 657 b 515 672 489 668 501 672 z m 1042 857 b 965 786 1042 818 1006 786 b 890 857 931 786 890 828 b 965 933 890 900 922 933 b 1042 857 1008 933 1042 900 z m 819 857 b 965 711 819 778 886 711 b 1118 857 1049 711 1118 775 b 965 1010 1118 943 1051 1010 b 819 857 883 1010 819 940 z "},"ほ":{"ha":1389,"x_min":0,"x_max":0,"o":"m 597 119 b 749 190 617 176 667 190 b 911 163 792 190 846 181 b 771 28 904 65 869 28 b 597 119 681 28 622 46 z m 1036 114 b 1238 -22 1131 53 1197 7 l 1318 82 l 1167 179 b 1042 233 1138 190 1096 208 b 1031 564 1035 378 1031 488 b 1269 603 1031 564 1107 578 l 1264 732 b 1031 678 1196 710 1117 692 b 1036 868 1031 761 1032 825 b 1183 900 1119 886 1169 896 l 1183 1014 b 549 960 969 960 813 953 l 549 851 b 683 846 596 847 640 846 b 906 857 694 846 768 850 b 900 663 901 799 900 735 b 700 657 853 658 786 657 b 483 672 650 657 578 661 l 478 558 b 711 543 575 547 653 543 b 906 553 711 543 710 542 b 911 271 906 458 907 365 b 749 288 843 282 789 288 b 478 114 615 288 478 228 b 776 -71 478 -7 631 -71 b 1036 114 932 -71 1006 -25 z m 385 999 l 233 1031 b 151 288 179 738 151 490 b 185 -82 151 204 163 81 l 319 -60 b 288 304 297 71 288 192 b 385 999 288 604 315 700 z "},"ぼ":{"ha":1389,"x_min":0,"x_max":0,"o":"m 603 103 b 765 179 603 165 675 179 b 911 157 808 179 857 171 b 760 17 897 47 868 17 b 603 103 682 17 618 32 z m 1031 108 b 1232 -37 1114 58 1182 10 l 1318 60 b 1036 228 1194 153 1201 157 b 1025 553 1029 496 1025 553 b 1264 597 1090 560 1169 575 l 1264 722 b 1025 672 1203 708 1122 690 l 1025 857 l 1090 868 l 1079 988 b 694 944 946 961 832 944 b 549 956 676 944 628 949 l 543 836 b 678 831 590 832 635 831 b 900 840 689 831 763 833 l 900 657 b 694 646 806 650 738 646 b 483 663 629 646 560 651 l 478 543 b 694 532 579 536 651 532 l 900 543 l 911 265 b 776 276 832 272 788 276 b 483 97 628 276 483 217 b 771 -76 483 -24 615 -76 b 1031 108 933 -76 1000 -35 z m 288 244 b 331 754 288 433 297 594 l 385 988 l 244 1025 b 157 239 186 746 157 485 b 185 -97 157 160 167 47 l 315 -71 b 288 244 297 63 288 168 z m 1069 1025 b 1193 890 1110 985 1150 940 l 1258 944 b 1128 1079 1222 985 1178 1029 z m 1372 1042 b 1243 1178 1347 1071 1304 1117 l 1178 1118 b 1307 982 1218 1082 1260 1036 z "},"ぽ":{"ha":1389,"x_min":0,"x_max":0,"o":"m 597 108 b 760 179 611 156 665 179 b 911 151 796 179 846 169 b 776 17 897 43 879 17 b 597 108 678 17 621 22 z m 483 92 b 786 -86 483 -36 651 -86 b 1031 103 942 -86 1010 -39 b 1238 -43 1125 42 1194 -7 l 1318 65 b 1036 222 1154 176 1236 129 l 1031 553 b 1269 592 1060 557 1139 569 l 1269 717 b 1031 667 1219 703 1139 685 l 1031 776 b 1036 863 1031 808 1032 838 l 1085 874 l 1069 976 b 754 944 957 954 851 944 b 553 950 682 944 614 946 l 549 836 l 683 836 b 900 846 690 836 763 839 l 900 651 b 700 646 853 647 786 646 b 483 657 657 646 585 650 l 478 543 b 651 532 586 536 644 532 b 900 543 694 532 776 536 b 911 256 900 503 904 407 b 743 271 846 267 790 271 b 483 92 600 271 483 211 z m 385 982 l 244 1014 b 157 310 186 761 157 526 b 185 -97 157 190 167 54 l 315 -71 b 293 114 307 -14 293 57 b 288 369 289 150 288 236 b 385 982 288 561 332 783 z m 1307 1025 b 1232 956 1307 986 1272 956 b 1156 1025 1192 956 1156 986 b 1232 1101 1156 1068 1189 1101 b 1307 1025 1275 1101 1307 1068 z m 1085 1025 b 1232 879 1085 946 1153 879 b 1383 1025 1307 879 1383 943 b 1232 1178 1383 1111 1318 1178 b 1085 1025 1150 1178 1085 1108 z "},"ま":{"ha":1389,"x_min":0,"x_max":0,"o":"m 504 -6 b 331 86 439 -6 331 22 b 510 190 331 164 419 190 b 646 185 560 190 606 189 l 646 125 b 504 -6 646 29 600 -6 z m 771 879 b 792 1085 779 951 792 1017 l 635 1090 l 640 868 b 179 906 482 868 292 878 l 163 781 b 325 760 224 767 278 760 b 640 754 365 756 471 754 l 640 569 b 364 672 450 563 390 543 l 239 667 b 640 461 247 444 346 461 l 640 288 b 526 299 582 294 544 299 b 206 92 363 299 206 243 b 504 -108 206 -44 349 -108 b 694 -65 581 -108 644 -94 b 771 151 774 -31 771 14 b 1150 -54 994 67 967 74 l 1238 54 b 771 265 1085 156 972 211 b 765 467 767 306 765 372 l 939 472 l 1128 493 l 1124 618 b 765 575 1011 593 892 579 l 765 754 b 1188 803 946 772 1086 789 l 1183 939 b 771 879 1035 910 967 886 z "},"み":{"ha":1389,"x_min":0,"x_max":0,"o":"m 456 439 b 364 282 401 342 371 289 b 239 174 322 229 290 174 b 190 233 208 174 190 203 b 456 439 190 361 324 417 z m 928 342 b 538 0 849 151 749 68 b 597 -136 560 -32 579 -78 b 1047 293 842 -18 947 50 b 1247 190 1111 275 1190 225 l 1318 319 b 1079 424 1210 369 1129 406 b 1124 722 1104 565 1119 664 l 976 738 b 956 467 969 614 963 525 b 629 543 843 503 735 529 b 814 971 697 713 760 856 l 700 1058 b 256 999 610 1026 461 1006 l 256 868 b 504 890 347 876 418 890 b 640 922 544 897 590 908 b 499 553 622 872 575 749 b 261 499 408 549 329 531 b 71 233 176 460 71 350 b 222 60 71 135 131 60 b 342 97 265 60 306 72 b 586 433 460 161 500 267 b 928 342 736 403 810 394 z "},"む":{"ha":1389,"x_min":0,"x_max":0,"o":"m 1010 808 b 1188 510 1093 693 1151 593 l 1307 564 b 1156 808 1232 715 1222 718 b 1107 874 1139 831 1139 831 z m 271 282 b 211 385 232 282 211 335 b 299 549 211 450 253 517 b 379 510 339 565 379 554 b 271 282 379 414 367 282 z m 103 369 b 239 190 103 290 161 190 b 319 206 261 190 288 194 b 293 71 301 140 293 96 b 694 -97 293 -86 479 -97 b 1150 125 974 -97 1150 -86 b 1096 472 1150 208 1132 324 b 971 456 1064 461 1021 456 b 1014 157 1000 289 1014 189 b 694 28 1014 3 881 28 b 418 108 579 28 418 18 b 493 450 418 154 493 374 b 489 549 493 490 493 524 b 521 765 507 625 517 697 b 776 803 575 769 661 781 l 771 933 b 532 885 681 908 600 892 b 553 1090 540 956 553 1021 l 407 1090 l 407 982 b 401 874 407 939 406 903 l 319 874 b 136 896 265 874 204 882 l 136 765 b 396 754 238 758 324 754 l 385 640 b 331 651 356 647 338 651 b 103 369 197 651 103 500 z "},"め":{"ha":1389,"x_min":0,"x_max":0,"o":"m 347 558 b 472 288 414 388 372 482 b 342 142 418 219 374 171 b 299 125 328 131 313 125 b 228 261 251 125 228 218 b 347 558 228 386 285 479 z m 683 711 b 549 401 618 551 574 449 b 450 629 517 463 482 539 b 683 711 553 688 568 678 z m 868 819 l 950 1025 l 803 1074 b 726 825 769 972 760 892 b 424 738 571 799 576 804 b 413 803 424 758 419 789 l 385 971 l 256 960 b 315 672 260 892 279 796 b 108 265 204 561 108 449 b 310 6 108 133 181 6 b 396 38 342 6 371 15 b 543 185 425 56 475 106 b 603 119 565 160 585 138 l 689 217 b 618 299 653 253 629 281 b 825 722 679 404 749 544 b 1144 390 1007 690 1144 588 b 1085 201 1144 314 1125 251 b 640 28 985 76 872 47 b 678 -92 651 -1 664 -42 b 1133 71 892 -78 1043 -24 b 1275 379 1228 157 1275 260 b 868 819 1275 654 1115 782 z "},"も":{"ha":1389,"x_min":0,"x_max":0,"o":"m 239 868 l 206 749 b 493 700 274 726 369 711 l 461 483 b 347 543 399 483 347 492 b 369 618 347 561 356 586 l 256 640 b 233 515 242 597 233 556 b 450 375 233 401 318 390 b 444 271 446 346 444 311 b 819 -97 444 33 581 -97 b 1215 233 1042 -97 1215 26 b 993 635 1215 428 1135 504 b 900 558 961 603 929 576 b 1079 265 1014 465 1079 414 b 819 11 1079 111 975 11 b 575 244 672 11 575 93 b 581 364 575 294 576 335 b 836 385 700 375 786 381 l 831 504 b 592 483 781 497 700 490 b 635 700 596 513 610 585 b 868 717 714 700 792 706 l 874 840 b 657 819 824 833 751 826 b 717 1074 689 964 710 1049 l 564 1101 b 521 819 557 1029 543 935 b 239 868 379 835 363 838 z "},"ゃ":{"ha":1389,"x_min":0,"x_max":0,"o":"m 722 629 l 521 558 l 461 738 l 342 711 l 413 521 b 201 444 318 481 249 456 l 250 331 l 444 424 b 618 -32 501 276 572 106 b 657 -146 650 -129 651 -129 l 765 -103 b 706 43 738 -31 735 14 l 592 347 b 553 467 586 378 567 446 b 760 543 647 503 717 529 l 781 489 l 885 521 l 863 569 b 1053 433 968 582 1053 531 b 928 310 1053 360 997 310 b 726 396 833 310 817 332 b 667 310 715 374 696 346 b 922 206 750 242 836 206 b 1167 424 1058 206 1167 292 b 911 657 1167 565 1057 657 l 831 657 l 743 836 l 646 786 b 722 629 671 753 704 676 z "},"や":{"ha":1389,"x_min":0,"x_max":0,"o":"m 982 429 b 711 538 861 429 783 482 b 629 444 693 519 665 488 b 999 310 753 354 875 310 b 1281 581 1156 310 1281 422 b 976 863 1281 750 1149 863 b 857 857 929 863 889 861 b 743 1085 832 922 793 999 l 629 1042 b 732 831 654 994 689 925 l 472 738 b 433 863 461 781 447 822 b 390 982 411 922 413 922 l 256 944 l 342 694 l 222 646 l 82 603 l 131 472 b 385 581 282 538 367 574 b 646 -119 479 319 567 86 l 776 -71 b 510 629 675 164 586 397 b 776 726 600 661 690 694 l 803 657 l 917 706 l 900 760 b 1144 581 1050 760 1144 704 b 982 429 1144 489 1069 429 z "},"ゅ":{"ha":1389,"x_min":0,"x_max":0,"o":"m 831 151 b 846 608 849 311 853 464 b 1025 385 968 593 1025 522 b 831 151 1025 238 964 183 z m 364 364 b 413 726 368 490 383 611 l 293 754 b 261 369 271 610 261 482 b 282 49 261 261 268 154 l 390 71 b 379 131 383 107 379 126 b 738 592 379 314 597 539 b 732 261 738 411 736 301 b 722 157 732 257 729 222 b 597 336 656 182 604 244 l 493 325 b 683 60 501 189 576 110 b 489 -54 604 -19 619 -6 b 526 -108 496 -61 526 -97 b 543 -157 533 -119 539 -135 b 803 49 672 -106 744 -61 b 1144 385 1008 49 1144 181 b 851 706 1144 575 1036 692 l 851 840 l 726 840 l 732 694 b 364 364 565 653 460 528 z "},"ゆ":{"ha":1389,"x_min":0,"x_max":0,"o":"m 868 233 b 885 461 879 328 885 403 b 890 814 889 515 890 633 b 1124 521 1046 799 1124 682 b 868 233 1124 343 1039 242 z m 885 928 l 885 1090 l 743 1096 b 760 911 754 1040 760 975 b 282 478 510 815 419 713 b 347 950 299 713 289 739 l 206 988 b 163 467 176 764 163 590 b 190 114 163 376 172 258 l 315 142 b 304 222 308 185 304 211 b 369 424 304 276 326 344 b 765 792 461 588 578 715 b 760 385 761 636 760 500 b 738 239 753 319 744 271 b 569 489 625 265 588 356 l 450 467 b 694 131 485 274 544 186 b 439 -22 647 69 563 18 b 504 -142 464 -47 504 -97 b 836 114 658 -93 753 -15 b 1264 521 1096 128 1264 261 b 885 928 1264 786 1128 900 z "},"ょ":{"ha":1389,"x_min":0,"x_max":0,"o":"m 347 32 b 499 125 347 100 429 125 b 624 103 542 125 583 117 b 515 -32 624 -3 606 -32 b 347 32 422 -32 385 -29 z m 250 43 b 515 -131 250 -75 371 -131 b 738 65 669 -131 722 -93 b 890 -6 835 18 886 -6 l 1064 -114 l 1128 0 l 911 108 b 732 179 875 126 772 165 l 732 461 b 1069 493 892 461 972 464 l 1058 608 b 922 575 990 586 944 575 b 732 564 857 568 793 564 b 749 803 732 632 738 713 l 618 808 b 624 206 614 740 617 539 b 521 217 574 213 539 217 b 250 43 389 217 250 167 z "},"よ":{"ha":1389,"x_min":0,"x_max":0,"o":"m 256 131 b 444 228 256 204 356 228 b 618 206 503 228 560 219 b 433 28 604 57 583 28 b 256 131 344 28 256 56 z m 142 131 b 439 -82 142 -7 282 -82 b 749 157 646 -82 732 -31 b 897 92 799 139 849 117 b 976 54 946 67 972 54 b 1167 -60 1040 22 1094 -28 l 1243 65 b 743 288 968 207 1075 160 l 743 651 b 831 646 768 647 799 646 b 1167 689 903 646 1015 660 l 1161 825 b 743 771 1007 776 921 763 l 743 781 b 760 1074 743 867 749 965 l 603 1074 l 603 663 b 613 315 603 554 606 439 b 467 331 558 326 510 331 b 142 131 294 331 142 269 z "},"ら":{"ha":1389,"x_min":0,"x_max":0,"o":"m 396 401 b 483 792 407 601 418 557 l 342 836 b 261 250 317 681 290 485 l 364 206 b 836 461 478 342 625 461 b 1053 288 963 461 1053 400 b 1010 168 1053 247 1039 208 b 424 22 907 35 707 11 b 444 -71 438 -21 444 -53 l 444 -114 b 1053 28 731 -107 933 -58 b 1188 293 1143 96 1188 185 b 851 569 1188 474 1043 569 b 396 401 644 569 546 499 z m 478 1128 l 424 1010 b 874 857 565 946 690 899 l 917 982 b 478 1128 747 1021 647 1050 z "},"り":{"ha":1389,"x_min":0,"x_max":0,"o":"m 608 478 b 504 532 568 496 533 514 b 456 424 488 481 475 424 l 444 424 b 439 439 440 428 439 432 b 521 1004 410 633 465 801 l 379 1042 b 310 549 332 857 310 693 b 433 206 310 397 321 206 b 608 478 546 206 558 315 z m 472 28 b 526 -108 490 -8 508 -54 b 868 43 664 -76 778 -25 b 1064 640 1029 168 1064 332 b 1047 1053 1064 771 1058 908 l 900 1042 b 928 624 918 868 928 729 b 472 28 928 215 815 90 z "},"る":{"ha":1389,"x_min":0,"x_max":0,"o":"m 504 108 b 597 179 504 146 549 179 b 776 17 688 179 733 107 l 700 17 b 504 108 635 17 504 39 z m 564 575 b 1004 950 674 671 890 879 l 922 1064 b 336 993 832 1035 636 1011 l 347 863 b 786 928 499 874 644 896 b 131 336 631 772 413 575 l 228 228 b 429 401 318 311 386 369 b 771 521 539 468 619 521 b 1064 288 942 521 1064 435 b 890 38 1064 157 1004 92 b 592 282 847 175 754 282 b 396 125 496 282 396 217 b 749 -86 396 -33 588 -86 b 1204 293 1001 -86 1204 53 b 825 624 1204 497 1036 624 b 564 575 679 624 704 622 z "},"れ":{"ha":1389,"x_min":0,"x_max":0,"o":"m 965 646 b 944 185 965 633 944 283 b 1124 -43 944 51 997 -43 b 1324 206 1258 -43 1292 58 b 1199 261 1283 210 1242 229 b 1124 86 1176 151 1181 86 b 1074 196 1079 86 1074 144 b 1096 700 1074 197 1096 608 b 928 885 1096 814 1044 885 b 786 840 892 885 844 869 b 467 608 721 804 615 728 l 467 683 b 575 786 496 715 532 750 l 526 874 l 478 851 l 493 1085 l 353 1090 l 353 814 b 119 781 251 796 174 785 l 131 657 b 347 700 189 664 261 678 l 342 499 l 49 228 l 125 114 l 342 342 l 336 -92 l 467 -92 l 461 244 l 461 461 b 803 726 621 594 735 683 b 890 760 835 749 865 760 b 965 646 950 760 965 719 z "},"ろ":{"ha":1389,"x_min":0,"x_max":0,"o":"m 792 504 b 1079 304 939 504 1079 444 b 971 119 1079 236 1043 174 b 603 32 899 61 776 32 b 450 38 542 32 490 33 b 483 -54 458 21 483 -18 b 489 -103 483 -68 485 -85 b 1215 293 847 -93 1215 -43 b 831 613 1215 497 1040 613 b 586 575 769 613 688 600 l 808 776 b 1019 960 889 850 943 892 l 939 1074 b 863 1042 910 1056 885 1046 b 776 1031 856 1042 826 1038 b 304 999 632 1010 453 999 l 315 863 b 797 928 475 874 635 896 l 608 743 b 401 549 529 664 460 599 l 142 319 l 233 211 b 792 504 396 374 506 504 z "},"ゎ":{"ha":1389,"x_min":0,"x_max":0,"o":"m 521 450 l 526 510 l 603 564 l 558 629 l 532 618 b 543 814 532 647 536 713 l 424 819 l 413 603 b 233 592 347 596 288 592 l 233 489 b 418 510 313 496 375 503 b 413 364 418 456 417 407 l 174 131 l 256 43 b 418 222 328 126 382 186 b 424 -131 418 81 419 -36 l 538 -131 b 521 331 526 39 521 193 b 851 493 647 439 757 493 b 1031 293 961 493 1031 410 b 635 11 1031 89 857 11 b 672 -97 642 -3 654 -39 b 1150 288 943 -68 1150 31 b 846 592 1150 465 1024 592 b 521 450 686 592 669 554 z "},"わ":{"ha":1389,"x_min":0,"x_max":0,"o":"m 1133 418 b 624 76 1133 163 913 76 b 672 -54 653 22 668 -22 b 1275 418 989 -22 1275 86 b 917 797 1275 643 1135 797 b 493 618 729 797 668 735 l 493 700 l 592 776 l 543 857 l 504 840 b 510 956 504 899 506 938 l 526 1079 l 379 1090 b 369 814 379 1015 376 879 b 136 808 279 807 201 804 l 136 678 b 369 706 229 678 282 690 b 364 521 365 638 364 575 b 60 228 213 376 110 278 l 163 125 b 244 233 197 172 222 190 l 364 369 l 364 -97 l 499 -92 b 489 489 492 118 489 311 b 906 678 658 615 797 678 b 1133 418 1051 678 1133 569 z "},"ゐ":{"ha":1389,"x_min":0,"x_max":0,"o":"m 646 119 b 722 179 646 154 686 179 b 911 38 788 179 850 132 b 831 28 868 31 842 28 b 646 119 788 28 646 56 z m 549 597 b 325 146 418 322 343 171 b 293 125 314 132 304 125 b 233 228 246 125 233 174 b 549 597 233 439 386 535 z m 288 -11 b 401 65 331 -11 369 15 b 689 618 456 151 551 336 b 776 624 714 622 744 624 b 1124 336 982 624 1124 531 b 1019 97 1124 207 1088 178 b 726 276 943 196 869 276 b 532 114 632 276 532 197 b 863 -71 532 -14 715 -71 b 1258 336 1096 -71 1258 103 b 1199 553 1258 419 1239 492 b 738 726 1096 696 993 726 l 840 928 b 874 988 844 935 856 956 l 792 1053 b 353 988 713 1017 567 994 l 353 863 b 689 917 515 871 546 881 b 597 711 628 775 597 711 b 119 228 340 657 119 506 b 288 -11 119 118 172 -11 z "},"ゑ":{"ha":1389,"x_min":0,"x_max":0,"o":"m 950 185 b 1074 65 968 174 1008 133 b 1204 -92 1088 51 1132 -1 l 1303 -11 b 1031 261 1217 94 1125 185 z m 608 499 b 646 467 636 499 646 489 b 597 390 646 444 629 419 b 532 439 563 400 532 406 b 608 499 532 476 560 499 z m 379 1031 l 385 900 b 765 960 490 911 617 931 b 201 558 494 739 478 725 l 276 450 l 461 586 b 781 694 585 667 619 694 b 1010 553 894 694 1010 661 b 976 467 1010 524 999 496 b 717 379 921 394 857 372 b 743 450 735 408 743 432 b 608 581 743 525 685 581 b 433 433 526 581 433 511 b 515 331 433 397 461 363 b 76 11 389 215 243 108 l 151 -103 b 478 76 236 -35 357 76 b 678 -92 567 76 593 -92 b 738 -71 700 -92 719 -85 b 890 76 769 -49 822 0 l 819 163 b 689 38 761 97 718 38 b 640 82 678 38 663 53 b 526 163 599 140 589 163 b 461 157 501 163 479 161 b 629 293 544 215 600 261 b 743 276 679 282 718 276 b 1144 549 944 276 1144 376 b 863 792 1144 704 1006 792 b 700 776 819 792 765 788 b 971 976 808 863 899 929 l 885 1096 b 379 1031 786 1053 544 1018 z "},"を":{"ha":1389,"x_min":0,"x_max":0,"o":"m 689 896 l 781 1042 l 640 1101 b 543 885 597 996 565 925 l 424 885 b 222 890 344 885 276 886 l 228 771 b 478 771 278 764 363 764 b 119 364 343 564 326 557 l 217 271 b 472 532 343 415 429 503 b 608 569 508 557 554 569 b 694 461 676 569 694 538 b 401 293 543 389 444 333 b 331 146 354 246 331 196 b 797 -86 331 -53 561 -86 b 1128 -71 851 -86 961 -82 l 1128 60 b 781 32 983 42 867 32 b 450 151 628 32 450 46 b 493 228 450 181 464 206 b 694 342 518 257 586 294 l 694 185 l 819 185 b 814 390 815 239 814 307 b 1238 510 1072 471 1057 468 l 1193 646 l 814 504 b 629 667 797 622 751 667 b 538 657 625 667 596 664 l 618 781 b 781 792 733 788 781 792 l 1025 825 l 1019 950 b 874 917 943 936 896 924 b 689 896 814 917 750 904 z "},"ん":{"ha":1389,"x_min":0,"x_max":0,"o":"m 429 450 b 613 819 497 594 558 718 l 711 1010 l 569 1074 b 60 0 467 825 240 321 l 190 -76 b 624 429 274 96 375 429 b 678 364 664 429 678 403 l 672 114 b 868 -71 672 -1 749 -71 b 1297 483 1172 -71 1244 192 b 1156 515 1254 483 1206 493 b 1036 125 1144 346 1104 215 b 890 43 1000 71 951 43 b 803 174 815 43 803 86 l 808 385 b 646 553 808 490 750 553 b 429 450 558 553 463 475 z "},"ゔ":{"ha":1389,"x_min":0,"x_max":0,"o":"m 1199 1178 l 1124 1113 b 1269 956 1164 1076 1211 1024 l 1351 1014 l 1269 1113 b 1199 1178 1247 1135 1224 1156 z m 418 1085 l 379 971 b 851 900 535 924 692 900 l 857 1025 l 760 1025 b 418 1085 589 1039 551 1043 z m 1128 851 l 1215 917 b 1069 1074 1136 1003 1088 1056 l 988 1004 l 1053 944 b 1128 851 1078 915 1103 883 z m 825 786 b 493 738 700 786 629 765 l 244 672 l 276 549 b 808 672 364 579 660 672 b 971 483 925 672 971 593 b 375 6 971 144 664 71 b 424 -125 397 -42 413 -85 b 1090 461 750 -37 1090 93 b 825 786 1090 656 1010 786 z "},"゛":{"ha":1389,"x_min":0,"x_max":0,"o":"m 43 944 b 206 797 108 890 163 840 l 276 874 b 108 1014 229 921 174 967 z m 168 1074 b 331 933 263 994 317 947 l 407 1004 l 239 1144 z "},"゜":{"ha":1389,"x_min":0,"x_max":0,"o":"m 288 976 b 211 900 288 939 244 900 b 136 976 183 900 136 949 b 211 1053 136 1010 174 1053 b 288 976 254 1053 288 1019 z m 60 976 b 211 831 60 900 133 831 b 364 976 294 831 364 894 b 211 1128 364 1063 297 1128 b 60 976 131 1128 60 1061 z "},"ゝ":{"ha":1389,"x_min":0,"x_max":0,"o":"m 521 950 l 396 917 b 846 336 501 625 613 485 l 390 196 l 433 86 b 1004 250 647 158 838 214 l 1025 250 l 1053 379 b 521 950 761 482 635 643 z "},"ゞ":{"ha":1389,"x_min":0,"x_max":0,"o":"m 510 939 l 390 900 b 846 325 492 596 597 474 b 396 185 618 249 468 203 l 433 76 b 988 239 606 138 794 204 l 1010 233 l 1047 375 b 510 939 753 465 617 649 z m 857 879 b 1010 738 929 814 981 767 l 1085 814 l 928 944 z m 982 999 b 1133 863 993 992 1043 946 l 1215 944 b 1053 1074 1136 1017 1082 1060 z "},"ァ":{"ha":1389,"x_min":0,"x_max":0,"o":"m 299 -32 b 369 -146 322 -64 354 -99 b 738 385 626 -49 715 50 l 776 336 b 939 467 849 390 903 435 l 1128 646 l 1053 738 l 265 738 l 265 624 l 939 624 b 738 439 815 511 749 450 l 738 493 l 608 493 l 608 358 b 299 -32 608 108 508 25 z "},"ア":{"ha":1389,"x_min":0,"x_max":0,"o":"m 1238 885 l 1144 993 l 1128 982 l 157 982 l 157 857 l 999 857 b 743 618 938 792 851 713 l 743 689 l 592 689 l 586 472 b 206 17 558 181 464 89 b 293 -114 268 -46 243 -21 b 618 103 461 -50 528 -6 b 743 558 714 208 725 360 l 792 493 b 1238 885 1000 658 1082 760 z "},"ィ":{"ha":1389,"x_min":0,"x_max":0,"o":"m 211 239 b 244 196 243 196 244 196 b 271 125 254 178 265 149 b 667 364 379 168 511 249 l 667 -146 l 792 -146 l 792 461 b 1042 706 857 522 940 604 l 939 786 b 211 239 728 532 529 368 z "},"イ":{"ha":1389,"x_min":0,"x_max":0,"o":"m 108 375 b 179 244 138 339 161 294 b 683 549 293 294 604 481 l 683 -108 l 831 -108 l 831 663 l 944 765 l 1150 976 l 1031 1079 b 108 375 769 761 499 538 z "},"ゥ":{"ha":1389,"x_min":0,"x_max":0,"o":"m 618 624 l 304 624 l 304 256 l 424 256 l 424 521 l 939 521 b 424 -28 922 161 742 24 l 467 -92 b 483 -151 471 -103 476 -122 b 1064 624 893 -33 1053 115 l 738 624 l 738 808 l 618 808 z "},"ウ":{"ha":1389,"x_min":0,"x_max":0,"o":"m 613 851 l 217 851 l 217 385 l 353 385 l 353 732 l 1010 732 b 369 17 1010 249 760 108 b 439 -119 388 -8 410 -54 b 732 -6 547 -94 646 -56 b 1167 851 1038 178 1154 375 l 760 851 l 760 1090 l 613 1090 z "},"ェ":{"ha":1389,"x_min":0,"x_max":0,"o":"m 304 504 l 624 504 l 624 38 l 211 38 l 211 -76 l 1172 -76 l 1172 38 l 749 38 l 749 504 l 1069 504 l 1069 618 l 304 618 z "},"エ":{"ha":1389,"x_min":0,"x_max":0,"o":"m 217 776 l 608 776 l 608 185 l 92 185 l 92 49 l 1269 49 l 1269 185 l 749 185 l 749 776 l 1150 776 l 1150 911 l 217 911 z "},"ォ":{"ha":1389,"x_min":0,"x_max":0,"o":"m 711 -17 l 608 -17 b 651 -136 631 -57 644 -96 b 857 -32 782 -131 857 -128 l 857 483 l 1161 483 l 1161 597 l 857 597 l 857 814 l 738 814 l 738 597 l 261 597 l 261 483 l 706 483 b 196 86 582 340 381 163 b 276 -22 221 61 247 25 b 738 342 464 79 600 196 l 738 11 b 711 -17 738 -11 733 -17 z "},"オ":{"ha":1389,"x_min":0,"x_max":0,"o":"m 760 803 l 151 803 l 151 678 l 722 678 b 76 163 557 453 365 310 b 168 38 113 131 143 88 b 760 515 432 183 571 294 l 760 65 b 754 43 760 54 758 47 l 592 43 b 629 -22 617 3 629 -18 b 640 -103 629 -22 633 -44 b 900 22 806 -89 900 -96 l 900 678 l 1281 678 l 1281 803 l 900 803 l 900 1085 l 760 1085 z "},"カ":{"ha":1389,"x_min":0,"x_max":0,"o":"m 201 -108 b 694 646 501 47 635 249 l 993 646 b 911 86 986 465 994 86 l 738 86 b 781 -60 763 18 776 -31 b 1096 103 988 -49 1086 -51 b 1144 776 1118 218 1133 443 l 706 776 b 711 1069 710 838 711 936 l 558 1069 l 558 776 l 211 776 l 211 646 l 549 646 b 108 6 517 286 361 146 b 201 -108 157 -24 172 -60 z "},"ガ":{"ha":1389,"x_min":0,"x_max":0,"o":"m 1107 814 l 1178 879 b 1019 1019 1139 918 1061 999 l 960 950 b 1107 814 1013 901 1067 854 z m 201 646 l 532 646 b 82 6 483 294 358 157 b 185 -108 118 -19 153 -58 b 678 646 485 61 619 243 l 982 646 b 885 76 979 474 983 76 l 726 76 b 765 -65 749 8 761 -40 b 1025 -22 903 -58 989 -44 b 1064 22 1050 3 1064 18 b 1101 256 1078 54 1090 132 b 1128 771 1113 368 1121 539 l 689 771 l 694 1064 l 543 1064 l 543 771 l 201 771 z m 1232 939 l 1303 1010 b 1139 1144 1206 1093 1150 1138 l 1074 1074 b 1232 939 1114 1053 1197 974 z "},"キ":{"ha":1389,"x_min":0,"x_max":0,"o":"m 581 797 l 196 765 l 206 640 l 592 678 l 613 444 l 108 396 l 125 271 l 624 325 l 667 -119 l 814 -108 l 765 336 l 1258 385 l 1243 510 l 749 461 l 726 694 l 1101 732 l 1090 851 l 717 814 l 689 1085 l 549 1074 z "},"ギ":{"ha":1389,"x_min":0,"x_max":0,"o":"m 1004 960 b 1161 819 1058 917 1111 869 l 1226 890 b 1069 1025 1150 958 1099 1003 z m 575 797 l 196 765 l 206 646 l 592 683 l 613 450 l 119 401 l 131 276 l 624 325 l 672 -125 l 814 -108 l 765 336 l 1264 390 l 1253 510 l 749 461 l 726 694 l 1101 732 l 1090 851 l 711 814 l 683 1085 l 549 1074 z m 1357 1014 b 1193 1156 1314 1057 1258 1106 l 1128 1085 b 1286 944 1139 1078 1192 1031 z "},"ク":{"ha":1389,"x_min":0,"x_max":0,"o":"m 142 433 b 231 358 207 392 199 396 l 244 342 b 586 732 408 478 478 561 l 988 732 b 874 478 940 613 903 528 b 217 32 719 240 518 113 b 299 -92 253 -4 281 -44 b 1004 424 588 -6 881 176 b 1161 765 1026 460 1078 574 l 1074 857 l 1053 846 l 646 846 l 738 1019 l 592 1074 b 142 433 463 753 365 607 z "},"グ":{"ha":1389,"x_min":0,"x_max":0,"o":"m 1004 944 b 1156 808 1081 879 1131 833 l 1221 874 b 1069 1010 1196 899 1146 944 z m 103 418 b 222 325 139 400 186 374 b 558 722 335 419 446 553 l 960 722 b 840 450 919 621 881 529 b 185 17 685 217 500 97 l 244 -54 b 265 -108 251 -76 258 -94 b 564 17 367 -83 467 -42 b 1128 760 865 181 994 401 l 1042 840 l 1019 836 l 618 836 l 700 999 l 558 1053 b 103 418 417 728 351 619 z m 1351 999 b 1188 1133 1326 1024 1271 1068 l 1128 1069 b 1275 928 1146 1056 1196 1007 z "},"ケ":{"ha":1389,"x_min":0,"x_max":0,"o":"m 82 478 b 174 375 129 431 160 397 b 293 499 246 447 286 488 b 336 564 304 515 304 515 b 418 683 358 596 386 636 l 819 683 b 319 11 763 275 656 133 b 379 -114 344 -25 365 -67 b 956 683 753 38 899 217 l 1303 683 l 1303 803 l 489 803 b 608 1036 514 843 554 921 l 472 1079 b 82 478 361 817 281 661 z "},"ゲ":{"ha":1389,"x_min":0,"x_max":0,"o":"m 1167 831 l 1238 900 b 1090 1036 1206 932 1156 978 l 1025 971 z m 60 472 b 157 369 107 432 139 399 b 396 678 246 458 335 574 l 803 678 b 299 0 763 282 629 131 b 369 -119 335 -50 358 -90 b 678 65 485 -72 588 -11 b 933 678 846 217 894 363 l 1286 678 l 1286 792 l 467 792 b 586 1036 521 889 561 971 l 450 1079 b 60 472 351 815 246 658 z m 1357 1019 b 1204 1161 1350 1026 1299 1075 l 1139 1090 b 1286 950 1182 1050 1232 1004 z "},"コ":{"ha":1389,"x_min":0,"x_max":0,"o":"m 233 749 l 976 749 l 976 211 l 233 211 l 233 76 l 976 76 l 976 6 l 1124 6 l 1124 885 l 233 885 z "},"ゴ":{"ha":1389,"x_min":0,"x_max":0,"o":"m 233 689 l 976 689 l 976 151 l 233 151 l 233 22 l 976 22 l 976 -54 l 1124 -54 l 1124 819 l 233 819 z m 1226 896 b 1074 1036 1197 925 1146 971 l 1004 965 l 1161 831 z m 1357 1025 b 1199 1167 1292 1086 1239 1135 l 1128 1090 b 1281 950 1168 1058 1219 1011 z "},"サ":{"ha":1389,"x_min":0,"x_max":0,"o":"m 857 754 l 521 754 l 521 1019 l 379 1019 l 379 754 l 97 754 l 97 635 l 379 635 l 379 319 l 521 319 l 521 635 l 857 635 b 819 304 850 472 838 363 b 347 32 753 143 578 56 b 418 -103 392 -39 396 -37 b 814 71 585 -60 717 -1 b 999 635 972 194 992 326 l 1292 635 l 1292 754 l 999 754 l 999 1058 l 857 1058 z "},"ザ":{"ha":1389,"x_min":0,"x_max":0,"o":"m 1025 976 b 1172 836 1039 965 1089 919 l 1238 906 b 1090 1042 1176 967 1126 1013 z m 840 743 l 504 743 l 504 1004 l 364 1004 l 364 743 l 92 743 l 92 624 l 364 624 l 364 304 l 504 304 l 504 624 l 840 624 b 336 11 840 193 718 68 b 413 -125 368 -36 394 -82 b 803 54 575 -89 706 -29 b 982 624 961 188 968 311 l 1275 624 l 1275 743 l 982 743 l 982 1047 l 840 1047 z m 1215 1167 l 1144 1096 b 1292 960 1210 1038 1260 992 l 1361 1025 z "},"シ":{"ha":1389,"x_min":0,"x_max":0,"o":"m 515 558 b 228 683 450 599 354 640 l 174 569 b 293 521 246 540 286 525 l 444 439 z m 239 60 l 304 -86 b 1292 613 776 108 1013 269 b 1199 722 1267 635 1235 672 b 239 60 949 408 678 210 z m 667 885 b 385 1042 572 946 479 999 l 319 933 b 592 776 378 904 468 853 z "},"ジ":{"ha":1389,"x_min":0,"x_max":0,"o":"m 521 558 b 347 640 408 613 351 640 b 239 683 318 654 282 669 l 190 564 b 461 439 274 532 364 489 z m 256 54 l 315 -92 b 1303 608 792 104 1015 265 b 1210 722 1271 631 1239 668 b 256 54 988 419 668 182 z m 1004 976 l 944 911 b 1090 771 992 868 1040 821 l 1161 840 b 1004 976 1122 879 1047 939 z m 689 885 b 396 1036 511 979 414 1029 l 331 928 b 613 771 403 896 497 843 z m 1215 900 l 1292 965 b 1128 1101 1240 1017 1192 1054 l 1064 1036 z "},"ス":{"ha":1389,"x_min":0,"x_max":0,"o":"m 185 -71 b 760 369 431 43 550 147 b 1139 -82 890 239 1025 93 l 1264 17 b 840 472 1049 281 1083 236 b 933 603 888 533 919 578 l 1079 857 l 988 950 l 971 944 l 228 944 l 228 819 l 900 819 b 86 54 664 403 511 239 b 185 -71 128 29 168 -39 z "},"ズ":{"ha":1389,"x_min":0,"x_max":0,"o":"m 1069 831 l 982 922 l 960 917 l 228 917 l 228 792 l 890 792 b 82 17 679 400 507 236 b 179 -103 111 -12 143 -53 b 749 342 403 17 593 164 b 1128 -108 913 165 1024 43 l 1253 -17 b 1085 190 1194 56 1139 125 l 831 444 b 1069 831 947 576 967 654 z m 1221 900 b 1069 1036 1203 922 1153 968 l 1010 965 b 1061 919 1028 951 1044 936 l 1150 831 z m 1124 1090 b 1269 956 1160 1061 1208 1017 l 1346 1031 b 1193 1161 1333 1043 1210 1153 z "},"セ":{"ha":1389,"x_min":0,"x_max":0,"o":"m 450 1064 l 450 700 l 114 651 l 131 526 l 450 575 l 450 114 b 706 -60 450 -17 561 -43 b 1107 -65 738 -64 872 -65 b 1226 -60 1136 -65 1176 -64 l 1226 76 b 982 65 1125 69 1043 65 b 672 76 826 65 722 69 b 586 174 599 90 586 93 l 586 597 l 1036 667 b 760 396 975 583 883 493 l 851 293 b 1010 444 921 363 950 385 l 1247 711 l 1150 814 l 1118 797 l 586 722 l 586 1064 z "},"ゼ":{"ha":1389,"x_min":0,"x_max":0,"o":"m 1014 944 b 1172 825 1079 901 1132 861 l 1238 900 b 1079 1014 1208 922 1156 960 z m 928 -71 b 1226 -65 1058 -71 1158 -69 l 1226 65 b 950 54 1140 58 1047 54 b 586 168 736 54 586 24 l 586 592 l 1036 663 b 760 385 935 554 843 461 l 851 288 b 1243 700 960 389 1092 526 l 1150 803 l 1124 792 l 586 711 l 586 1058 l 444 1058 l 444 694 b 114 646 249 665 139 650 l 131 515 b 444 564 239 533 343 550 l 444 103 b 928 -71 444 -78 640 -71 z m 1351 1031 b 1193 1156 1279 1089 1225 1131 l 1133 1079 b 1292 960 1165 1057 1219 1018 z "},"ソ":{"ha":1389,"x_min":0,"x_max":0,"o":"m 179 896 b 319 700 321 700 319 700 b 396 558 360 632 385 583 l 515 640 b 288 965 415 814 399 846 z m 319 32 b 375 -43 374 -44 375 -43 b 407 -103 386 -65 396 -85 b 1210 944 913 65 1092 388 l 1053 976 b 319 32 974 454 807 142 z "},"ゾ":{"ha":1389,"x_min":0,"x_max":0,"o":"m 310 0 b 390 -119 335 -32 361 -72 b 781 86 550 -65 679 3 b 1178 851 1015 286 1081 482 l 1036 900 b 310 0 919 342 793 161 z m 276 944 l 168 868 b 385 538 251 753 324 643 l 504 613 b 276 944 388 807 444 726 z m 1258 933 b 1113 1069 1193 992 1144 1038 l 1047 1010 b 1193 868 1079 981 1128 933 z m 1383 1053 b 1232 1183 1336 1096 1286 1140 l 1167 1124 l 1313 988 z "},"タ":{"ha":1389,"x_min":0,"x_max":0,"o":"m 114 467 b 201 353 150 438 179 400 b 390 493 267 389 329 435 b 629 771 500 579 519 618 l 1014 771 b 825 424 949 596 921 560 b 564 608 757 478 669 540 l 483 515 b 738 319 551 472 636 406 b 179 0 544 149 456 94 b 265 -119 229 -43 240 -60 b 1042 504 604 10 886 217 l 1188 814 l 1118 890 l 1107 885 l 700 885 b 771 1025 738 961 739 960 l 624 1074 b 114 467 513 786 371 615 z "},"ダ":{"ha":1389,"x_min":0,"x_max":0,"o":"m 1047 982 b 1193 846 1126 910 1175 864 l 1258 911 b 1107 1042 1215 954 1165 999 z m 86 467 b 179 358 126 435 157 399 b 613 771 346 449 489 586 l 999 771 b 803 418 944 644 879 526 b 549 613 735 476 650 540 l 467 521 b 711 325 543 463 625 397 b 163 11 557 171 408 82 b 256 -119 192 -18 224 -61 b 663 103 415 -58 550 17 b 1161 808 925 307 1013 472 l 1069 890 l 1053 885 l 672 885 b 738 1019 697 939 719 983 l 603 1074 b 86 467 499 782 353 619 z m 1221 1156 l 1156 1085 l 1307 956 l 1372 1025 b 1221 1156 1313 1069 1268 1108 z "},"チ":{"ha":1389,"x_min":0,"x_max":0,"o":"m 201 939 b 244 814 224 881 238 839 b 646 868 382 825 515 843 l 646 646 l 86 646 l 86 526 l 646 526 b 201 -6 632 178 478 72 b 288 -131 226 -31 256 -72 b 776 526 608 -11 751 106 l 1297 526 l 1297 646 l 781 646 l 781 890 b 1107 960 878 901 988 924 l 1042 1079 b 201 939 731 989 583 974 z "},"ヂ":{"ha":1389,"x_min":0,"x_max":0,"o":"m 1025 846 b 1167 711 1054 821 1101 776 l 1238 781 l 1085 917 z m 1210 1042 l 1139 971 b 1286 831 1207 910 1257 863 l 1361 906 z m 206 944 b 244 825 228 894 240 854 b 646 868 350 829 483 843 l 646 640 l 86 640 l 86 526 l 646 526 b 532 174 639 347 621 263 b 201 0 453 86 358 29 b 276 -125 231 -36 254 -78 b 781 526 588 -12 768 138 l 1297 526 l 1297 640 l 781 640 l 781 890 b 1090 960 889 904 993 928 l 1025 1079 b 206 944 722 983 581 965 z "},"ッ":{"ha":1389,"x_min":0,"x_max":0,"o":"m 358 667 l 256 613 b 385 358 303 536 344 453 l 493 413 b 358 667 447 503 400 583 z m 390 -54 b 456 -162 415 -79 438 -115 b 825 43 600 -115 724 -47 b 1161 663 1014 203 1061 351 l 1036 706 b 390 -54 914 254 796 81 z m 532 694 b 651 433 590 582 629 494 l 754 483 b 640 743 729 549 690 635 z "},"ツ":{"ha":1389,"x_min":0,"x_max":0,"o":"m 142 857 b 233 700 182 790 208 750 l 315 538 l 444 597 b 364 760 413 669 386 724 l 256 922 z m 310 22 b 364 -43 332 0 350 -21 l 396 -119 b 1269 900 900 74 1111 335 l 1118 944 b 310 22 1001 429 806 146 z m 493 956 b 592 765 529 888 563 824 l 646 635 l 776 683 b 618 1004 722 807 668 914 z "},"ヅ":{"ha":1389,"x_min":0,"x_max":0,"o":"m 310 17 b 390 -119 367 -53 367 -50 b 1247 851 896 54 1094 335 l 1101 906 b 310 17 1008 399 790 146 z m 136 863 b 315 538 208 743 268 635 l 439 603 b 250 928 367 740 304 849 z m 646 640 l 771 689 l 717 819 b 613 1014 717 824 681 888 l 493 960 b 646 640 585 796 585 804 z m 1079 999 b 1238 885 1151 951 1206 914 l 1292 950 b 1128 1064 1244 990 1189 1028 z m 1383 1074 b 1221 1183 1361 1092 1307 1129 l 1167 1118 b 1329 999 1232 1075 1286 1035 z "},"テ":{"ha":1389,"x_min":0,"x_max":0,"o":"m 92 558 l 646 558 b 217 -11 625 185 517 83 b 261 -65 260 -65 261 -65 l 293 -142 b 792 558 646 10 760 124 l 1292 558 l 1292 683 l 92 683 z m 293 874 l 1101 874 l 1101 999 l 293 999 z "},"デ":{"ha":1389,"x_min":0,"x_max":0,"o":"m 86 558 l 640 558 b 603 271 633 421 621 325 b 206 -6 531 108 411 56 b 250 -60 249 -60 250 -60 b 282 -142 261 -87 260 -87 b 781 558 614 -17 769 117 l 1292 558 l 1292 678 l 86 678 z m 282 874 l 1047 874 l 1047 999 l 282 999 z m 1074 993 b 1204 857 1142 925 1186 879 l 1269 917 b 1139 1058 1229 964 1186 1011 z m 1183 1096 b 1307 956 1213 1067 1253 1021 l 1378 1019 b 1247 1156 1349 1051 1306 1097 z "},"ト":{"ha":1389,"x_min":0,"x_max":0,"o":"m 467 -119 l 618 -119 l 618 553 b 1128 304 844 478 958 415 l 1210 439 b 618 700 888 608 978 572 l 618 1085 l 467 1085 z "},"ド":{"ha":1389,"x_min":0,"x_max":0,"o":"m 1079 808 b 922 944 1044 843 963 925 l 851 879 b 1004 732 876 857 928 808 z m 1133 857 l 1210 933 b 1047 1074 1178 963 1124 1008 l 976 1004 z m 456 -119 l 603 -119 l 603 553 b 1113 299 838 465 971 390 l 1193 429 b 603 700 1019 528 832 614 l 603 1085 l 456 1085 z "},"ナ":{"ha":1389,"x_min":0,"x_max":0,"o":"m 667 749 l 125 749 l 125 618 l 667 618 b 233 6 654 222 543 108 b 310 -125 251 -17 278 -60 b 814 618 656 3 803 163 l 1286 618 l 1286 749 l 819 749 l 819 1090 l 667 1090 z "},"ニ":{"ha":1389,"x_min":0,"x_max":0,"o":"m 97 86 l 1286 86 l 1286 222 l 97 222 z m 256 738 l 1118 738 l 1118 874 l 256 874 z "},"ヌ":{"ha":1389,"x_min":0,"x_max":0,"o":"m 1133 896 l 1064 960 l 1047 956 l 222 956 l 222 831 l 956 831 b 781 499 894 679 835 567 b 424 700 675 560 557 628 l 353 597 b 694 390 549 485 663 415 l 613 310 b 114 38 465 182 306 101 b 201 -92 150 1 179 -42 b 797 315 489 49 618 100 b 1064 71 906 221 996 139 l 1172 190 b 890 424 1089 263 996 340 b 1133 896 1019 596 1021 628 z "},"ネ":{"ha":1389,"x_min":0,"x_max":0,"o":"m 900 493 l 825 385 b 1210 119 990 294 1057 244 l 1297 244 b 900 493 1081 397 1164 339 z m 760 -146 l 760 456 b 971 629 883 553 953 611 l 1090 749 l 1031 831 l 1010 825 l 233 825 l 233 706 l 857 706 b 82 239 596 465 458 369 b 151 125 118 189 140 150 b 618 358 347 201 503 279 l 618 -146 z m 478 1047 b 732 857 539 1007 624 943 l 825 960 b 558 1144 775 996 685 1058 z "},"ノ":{"ha":1389,"x_min":0,"x_max":0,"o":"m 179 43 b 276 -71 222 3 254 -35 b 613 179 396 -3 507 82 b 1090 1004 872 431 935 582 l 939 1053 b 179 43 778 526 618 304 z "},"ハ":{"ha":1389,"x_min":0,"x_max":0,"o":"m 54 108 b 163 11 104 65 140 33 b 592 846 378 253 485 481 l 439 900 b 54 108 333 506 265 368 z m 1156 43 l 1303 103 b 885 928 1188 432 1067 657 l 771 857 b 1156 43 965 531 1044 417 z "},"バ":{"ha":1389,"x_min":0,"x_max":0,"o":"m 38 82 b 142 -17 85 50 119 15 b 581 825 365 222 467 451 l 433 874 b 38 82 340 500 242 338 z m 1139 28 l 1281 86 l 1215 282 b 1118 493 1201 325 1168 396 b 874 906 1075 583 993 721 l 760 840 b 1139 28 933 581 1053 361 z m 1183 814 b 1031 960 1151 858 1075 931 l 965 896 l 1118 749 z m 1090 1010 b 1243 874 1174 942 1225 896 l 1307 944 b 1156 1079 1289 967 1239 1011 z "},"パ":{"ha":1389,"x_min":0,"x_max":0,"o":"m 43 76 b 151 -17 83 51 119 19 b 581 819 357 222 460 457 l 433 874 b 43 76 324 464 271 358 z m 1139 22 l 1281 82 b 868 906 1167 440 1046 642 l 749 836 b 1139 22 950 533 1028 411 z m 1215 879 b 1139 803 1215 836 1182 803 b 1064 879 1096 803 1064 836 b 1139 956 1064 922 1096 956 b 1215 879 1182 956 1215 922 z m 988 879 b 1139 726 988 793 1053 726 b 1292 879 1225 726 1292 793 b 1139 1031 1292 957 1225 1031 b 988 879 1053 1031 988 965 z "},"ヒ":{"ha":1389,"x_min":0,"x_max":0,"o":"m 450 640 l 450 1042 l 310 1042 l 310 146 b 532 -32 310 7 389 -17 b 939 -49 638 -43 772 -49 b 1183 -43 1007 -49 1089 -47 l 1183 97 b 879 82 1082 86 981 82 b 526 97 699 82 581 86 b 450 179 464 103 450 117 l 450 515 b 885 603 689 558 835 589 b 1150 683 971 621 1060 647 l 1069 814 b 450 640 826 717 738 696 z "},"ビ":{"ha":1389,"x_min":0,"x_max":0,"o":"m 1124 814 l 1193 879 b 1036 1014 1189 883 1138 928 l 976 950 z m 450 168 l 450 515 b 1133 667 719 557 896 588 l 1058 792 b 450 635 881 719 678 667 l 450 1036 l 310 1036 l 310 131 b 450 -28 310 29 351 -10 b 896 -54 529 -46 679 -54 b 1183 -43 896 -54 967 -50 l 1183 92 b 717 76 1060 81 904 76 b 450 168 578 76 450 68 z m 1161 1144 l 1096 1074 l 1247 939 l 1318 1010 z "},"ピ":{"ha":1389,"x_min":0,"x_max":0,"o":"m 450 168 l 450 510 b 1128 663 625 532 971 613 l 1058 792 b 450 629 867 715 700 679 l 450 1031 l 304 1031 l 304 179 b 608 -49 304 -31 399 -32 l 840 -54 l 993 -54 l 1178 -49 l 1178 86 b 749 76 1113 79 969 76 b 450 168 596 76 450 63 z m 1210 950 b 1133 874 1210 913 1167 874 b 1058 950 1100 874 1058 913 b 1133 1025 1058 993 1090 1025 b 1210 950 1176 1025 1210 993 z m 982 950 b 1133 803 982 868 1050 803 b 1281 950 1213 803 1281 871 b 1133 1101 1281 1033 1215 1101 b 982 950 1047 1101 982 1036 z "},"フ":{"ha":1389,"x_min":0,"x_max":0,"o":"m 201 944 l 201 814 l 1042 814 b 276 54 893 383 699 182 b 315 -11 301 14 315 -7 b 336 -82 329 -51 336 -75 b 700 92 485 -32 606 26 b 1210 868 993 299 1064 481 l 1118 950 l 1101 944 z "},"ブ":{"ha":1389,"x_min":0,"x_max":0,"o":"m 174 922 l 174 792 l 1014 792 b 814 390 953 614 886 481 b 239 28 658 183 543 110 b 282 -28 257 10 272 -8 b 315 -103 282 -28 283 -26 b 1101 613 704 15 960 240 l 1183 836 l 1085 928 l 1074 922 z m 1210 879 l 1264 939 b 1124 1064 1214 989 1167 1032 l 1069 1004 b 1210 879 1108 971 1186 915 z m 1172 1101 b 1313 982 1215 1072 1263 1032 l 1378 1042 b 1238 1167 1328 1092 1281 1135 z "},"プ":{"ha":1389,"x_min":0,"x_max":0,"o":"m 325 -103 b 1183 836 808 68 1018 342 l 1085 928 l 1069 917 l 168 917 l 168 786 l 1014 786 b 244 28 842 351 689 168 b 325 -103 286 -14 301 -42 z m 1303 1031 b 1226 956 1303 988 1269 956 b 1150 1031 1189 956 1150 997 b 1226 1107 1150 1064 1189 1107 b 1303 1031 1269 1107 1303 1074 z m 1079 1031 b 1226 879 1079 947 1144 879 b 1378 1031 1313 879 1378 944 b 1226 1178 1378 1113 1310 1178 b 1079 1031 1147 1178 1079 1110 z "},"ヘ":{"ha":1389,"x_min":0,"x_max":0,"o":"m 575 749 b 586 743 579 749 582 747 b 624 711 597 743 610 733 b 1199 49 822 497 1007 269 l 1313 157 b 651 851 940 558 719 790 b 581 879 626 869 603 879 b 472 831 540 879 504 863 l 97 407 l 211 304 b 543 722 417 561 529 700 b 575 749 561 740 571 749 z "},"ベ":{"ha":1389,"x_min":0,"x_max":0,"o":"m 581 743 b 597 732 585 743 590 739 b 1193 49 651 682 850 454 l 1307 146 b 640 857 917 579 694 817 b 586 879 626 871 608 879 b 515 857 554 879 529 871 b 108 407 486 835 350 686 l 217 310 l 472 624 b 569 738 533 700 565 738 b 581 743 574 742 576 743 z m 1010 711 l 1085 776 l 933 922 l 868 863 b 1010 711 910 815 974 756 z m 1221 885 b 1069 1042 1153 961 1101 1013 l 999 976 b 1144 825 1049 922 1097 872 z "},"ペ":{"ha":1389,"x_min":0,"x_max":0,"o":"m 586 738 b 618 717 593 738 604 731 b 1204 38 665 674 861 446 l 1318 142 l 840 667 b 651 863 768 743 706 808 b 575 879 629 874 604 879 b 526 863 561 879 544 874 b 379 717 504 849 456 800 l 114 407 l 222 304 l 558 722 b 586 738 569 733 579 738 z m 1118 879 b 1042 803 1118 836 1085 803 b 965 879 999 803 965 836 b 1042 956 965 922 999 956 b 1118 879 1085 956 1118 922 z m 890 879 b 1042 726 890 793 956 726 b 1188 879 1124 726 1188 796 b 1042 1025 1188 958 1121 1025 b 890 879 958 1025 890 961 z "},"ホ":{"ha":1389,"x_min":0,"x_max":0,"o":"m 97 125 b 222 38 140 100 182 69 b 504 493 354 194 399 282 l 375 558 b 97 125 233 288 267 303 z m 988 581 l 868 504 b 1188 65 965 326 1072 181 b 1307 163 1228 106 1267 138 b 988 581 1151 310 1107 376 z m 618 797 l 119 797 l 119 672 l 618 672 l 618 -114 l 760 -114 l 760 672 l 1281 672 l 1281 797 l 760 797 l 760 1096 l 618 1096 z "},"ボ":{"ha":1389,"x_min":0,"x_max":0,"o":"m 97 119 b 211 28 138 94 175 64 b 499 483 326 158 422 310 l 375 549 b 97 119 296 363 232 254 z m 982 564 l 863 493 b 1183 49 979 286 1019 242 b 1303 146 1224 89 1263 121 b 982 564 1163 261 1071 406 z m 1183 911 b 1136 963 1169 929 1153 946 b 1090 1010 1111 988 1113 988 b 1042 1053 1076 1024 1060 1039 l 971 982 l 1118 846 z m 613 781 l 114 781 l 114 663 l 613 663 l 613 -125 l 754 -125 l 754 663 l 1281 663 l 1281 781 l 754 781 l 754 1074 l 613 1074 z m 1096 1107 b 1247 971 1168 1049 1218 1003 l 1324 1042 b 1167 1178 1288 1078 1211 1144 z "},"ポ":{"ha":1389,"x_min":0,"x_max":0,"o":"m 92 119 b 211 32 142 94 182 64 b 499 483 343 186 374 239 l 364 543 b 92 119 261 311 239 267 z m 982 558 l 857 493 b 1188 49 963 319 1072 172 b 1307 146 1219 89 1260 121 b 982 558 1142 294 1118 349 z m 613 781 l 114 781 l 114 667 l 613 667 l 613 -131 l 754 -131 l 754 667 l 1275 667 l 1275 781 l 754 781 l 754 1074 l 613 1074 z m 1188 1014 b 1113 939 1188 976 1146 939 b 1036 1014 1085 939 1036 986 b 1113 1090 1036 1047 1075 1090 b 1188 1014 1156 1090 1188 1057 z m 960 1014 b 1113 868 960 938 1035 868 b 1264 1014 1196 868 1264 932 b 1113 1167 1264 1100 1199 1167 b 960 1014 1032 1167 960 1099 z "},"マ":{"ha":1389,"x_min":0,"x_max":0,"o":"m 444 586 l 353 489 b 840 -11 586 292 665 211 l 956 86 b 760 310 872 188 807 263 b 1269 808 969 499 1054 593 l 1188 917 l 1161 911 l 136 911 l 136 786 l 1047 786 l 851 569 b 667 396 783 501 721 443 b 444 586 554 497 531 511 z "},"ミ":{"ha":1389,"x_min":0,"x_max":0,"o":"m 1133 60 b 239 265 828 174 646 204 l 217 136 b 1085 -76 532 96 821 25 z m 1004 510 b 353 672 772 582 556 636 l 325 549 b 960 379 506 517 718 458 z m 1074 868 b 369 1058 821 951 586 1015 l 336 928 b 1036 732 597 881 831 815 z "},"ム":{"ha":1389,"x_min":0,"x_max":0,"o":"m 700 32 b 1058 92 888 61 1008 81 b 1133 -65 1088 49 1111 -4 l 1275 6 b 879 608 1074 360 1129 294 l 765 532 b 999 201 851 417 931 307 b 429 136 847 176 657 154 b 803 976 526 346 782 908 l 646 1036 b 276 131 531 703 407 401 l 125 119 l 146 -43 z "},"メ":{"ha":1389,"x_min":0,"x_max":0,"o":"m 754 624 b 418 781 599 696 486 749 l 353 667 b 689 510 497 608 610 557 b 136 43 549 286 381 147 b 228 -76 168 11 199 -29 b 803 433 538 108 613 157 l 906 353 b 1053 217 992 274 1042 228 l 1161 336 b 868 553 1089 397 992 469 b 1058 993 936 686 1000 833 l 911 1042 b 754 624 858 863 838 797 z "},"モ":{"ha":1389,"x_min":0,"x_max":0,"o":"m 635 146 l 635 461 l 1264 461 l 1264 575 l 635 575 l 635 868 l 1090 868 l 1090 988 l 222 988 l 222 868 l 489 868 l 489 575 l 97 575 l 97 461 l 489 461 l 489 86 b 694 -54 489 -43 575 -40 b 1193 -65 774 -61 940 -65 l 1193 71 b 776 71 1103 67 964 67 b 635 146 681 71 635 63 z "},"ャ":{"ha":1389,"x_min":0,"x_max":0,"o":"m 1047 667 b 618 581 867 626 724 599 b 569 831 589 700 574 783 l 444 808 l 493 553 l 196 493 l 217 385 l 515 450 l 629 -146 l 760 -119 b 722 43 749 -83 736 -29 l 640 478 b 976 549 789 503 900 526 b 771 299 915 456 840 382 l 857 222 b 1156 597 947 317 1047 442 l 1064 678 z "},"ヤ":{"ha":1389,"x_min":0,"x_max":0,"o":"m 1286 786 l 1178 896 l 1150 874 b 613 771 1060 856 881 821 l 553 1085 l 407 1058 l 472 738 l 97 667 l 119 538 b 499 618 271 567 397 593 l 640 -131 l 781 -97 b 635 646 732 151 683 399 b 786 672 707 664 726 660 l 1069 738 b 808 424 975 611 888 507 l 917 331 b 1286 786 1139 603 1158 658 z "},"ュ":{"ha":1389,"x_min":0,"x_max":0,"o":"m 1178 82 l 917 82 l 965 624 l 319 624 l 319 510 l 819 510 l 781 82 l 201 82 l 201 -43 l 1178 -43 z "},"ユ":{"ha":1389,"x_min":0,"x_max":0,"o":"m 1297 211 l 976 211 l 999 478 l 1036 896 l 233 896 l 233 760 l 874 760 b 825 211 858 576 842 393 l 82 211 l 82 76 l 1297 76 z "},"ョ":{"ha":1389,"x_min":0,"x_max":0,"o":"m 342 586 l 917 586 l 917 385 l 342 385 l 342 271 l 917 271 l 917 49 l 342 49 l 342 -65 l 917 -65 l 917 -119 l 1053 -119 l 1053 706 l 342 706 z "},"ヨ":{"ha":1389,"x_min":0,"x_max":0,"o":"m 256 846 l 999 846 l 999 569 l 261 569 l 261 450 l 999 450 l 999 142 l 256 142 l 256 17 l 999 17 l 999 -43 l 1144 -43 l 1144 971 l 256 971 z "},"ラ":{"ha":1389,"x_min":0,"x_max":0,"o":"m 353 -125 b 808 60 538 -82 689 -19 b 1226 640 1033 218 1086 336 l 1150 711 l 1124 706 l 179 706 l 179 581 l 1042 581 b 288 17 890 249 714 78 b 353 -125 331 -39 342 -67 z m 310 896 l 1064 896 l 1064 1019 l 310 1019 z "},"リ":{"ha":1389,"x_min":0,"x_max":0,"o":"m 331 315 l 478 315 l 478 999 l 331 999 z m 900 613 b 792 179 900 406 892 279 b 439 6 701 71 622 54 b 510 -125 471 -42 496 -85 b 1042 575 889 -10 1042 124 l 1042 1058 l 900 1058 z "},"ル":{"ha":1389,"x_min":0,"x_max":0,"o":"m 49 22 b 136 -92 78 -7 107 -44 b 493 515 338 32 463 224 b 510 944 500 569 506 713 l 369 944 b 49 22 369 396 353 221 z m 846 157 l 846 1036 l 711 1036 l 711 65 l 694 43 l 781 -54 b 1351 489 996 81 1193 271 b 1247 575 1344 493 1308 521 b 846 157 1089 349 1058 322 z "},"レ":{"ha":1389,"x_min":0,"x_max":0,"o":"m 444 136 l 444 1031 l 299 1031 l 299 54 l 288 28 l 390 -65 b 489 -11 413 -47 446 -29 b 1286 640 904 211 1015 293 b 1188 738 1250 669 1217 701 b 444 136 964 438 807 301 z "},"ロ":{"ha":1389,"x_min":0,"x_max":0,"o":"m 999 211 l 369 211 l 369 803 l 999 803 z m 222 -11 l 369 -11 l 369 86 l 999 86 l 999 0 l 1144 0 l 1144 928 l 222 928 z "},"ヮ":{"ha":1389,"x_min":0,"x_max":0,"o":"m 444 608 l 950 608 b 461 -43 911 196 783 89 b 532 -151 493 -79 518 -115 b 1079 711 918 8 1050 204 l 319 711 l 319 293 l 444 293 z "},"ワ":{"ha":1389,"x_min":0,"x_max":0,"o":"m 375 836 l 1019 836 b 407 6 1004 342 778 157 l 450 -49 b 489 -125 471 -69 472 -90 b 825 76 626 -67 739 0 b 1172 956 1083 301 1144 483 l 228 956 l 228 433 l 375 433 z "},"ヰ":{"ha":1389,"x_min":0,"x_max":0,"o":"m 781 863 l 206 863 l 206 738 l 781 738 l 781 369 l 504 369 l 504 678 l 369 678 l 369 369 l 86 369 l 86 244 l 781 244 l 781 -136 l 922 -136 l 922 244 l 1297 244 l 1297 369 l 922 369 l 922 738 l 1193 738 l 1193 863 l 922 863 l 922 1101 l 781 1101 z "},"ヱ":{"ha":1389,"x_min":0,"x_max":0,"o":"m 201 944 l 201 814 l 988 814 b 743 581 904 731 822 653 l 613 586 l 613 157 l 97 157 l 97 28 l 1297 28 l 1297 157 l 749 157 l 749 439 b 1096 722 897 547 1013 643 b 1221 831 1143 769 1185 806 l 1124 950 l 1107 944 z "},"ヲ":{"ha":1389,"x_min":0,"x_max":0,"o":"m 353 -108 b 738 54 513 -58 640 -4 b 1172 993 1038 242 1136 519 l 222 993 l 222 863 l 1014 863 b 982 640 1007 779 996 706 l 265 640 l 265 515 l 944 515 b 282 32 811 226 625 119 b 353 -108 322 -19 339 -65 z "},"ン":{"ha":1389,"x_min":0,"x_max":0,"o":"m 211 65 l 288 -86 b 1297 678 753 125 988 303 b 1193 781 1247 710 1219 738 b 211 65 951 444 674 215 z m 532 663 l 629 776 b 304 1019 560 846 418 957 l 217 911 b 532 663 351 810 385 797 z "},"ヴ":{"ha":1389,"x_min":0,"x_max":0,"o":"m 1019 993 b 1167 863 1074 950 1124 906 l 1232 922 b 1079 1058 1178 969 1126 1015 z m 613 836 l 211 836 l 211 375 l 353 375 l 353 722 l 1004 722 b 369 0 993 238 789 96 b 439 -131 401 -47 425 -90 b 1156 836 911 -1 1143 246 l 743 836 l 743 1085 l 613 1085 z m 1351 1031 b 1193 1167 1311 1071 1258 1117 l 1133 1107 l 1281 971 z "},"ヵ":{"ha":1389,"x_min":0,"x_max":0,"o":"m 293 467 l 553 467 b 206 -49 506 164 422 93 b 293 -142 242 -78 271 -110 b 678 467 544 42 617 126 l 917 467 b 896 142 913 358 907 250 b 836 17 892 65 889 17 l 711 17 b 760 -103 733 -31 749 -71 b 939 -82 857 -96 917 -89 b 1031 293 1032 -58 1021 144 l 1047 569 l 689 569 l 689 797 l 564 797 b 564 569 571 685 571 610 l 293 569 z "},"ヶ":{"ha":1389,"x_min":0,"x_max":0,"o":"m 201 331 b 282 239 219 317 246 286 b 483 489 390 347 426 410 l 786 489 b 390 -54 750 150 656 49 b 456 -157 419 -90 442 -125 b 911 489 767 -25 861 104 l 1183 489 l 1183 592 l 543 592 l 629 771 l 510 814 b 201 331 422 574 363 492 z "},"ヷ":{"ha":1389,"x_min":0,"x_max":0,"o":"m 1232 1172 l 1167 1107 b 1307 982 1214 1067 1260 1025 l 1372 1042 b 1232 1172 1325 1092 1279 1136 z m 1139 1085 l 1074 1025 b 1210 896 1114 993 1160 950 l 1275 956 l 1243 988 b 1139 1085 1225 1010 1189 1042 z m 336 836 l 988 836 b 375 0 944 346 758 163 b 444 -125 404 -40 426 -82 b 1133 956 918 106 1078 304 l 201 956 l 201 439 l 336 439 z "},"ヸ":{"ha":1389,"x_min":0,"x_max":0,"o":"m 1226 1178 l 1161 1118 b 1307 988 1201 1086 1249 1042 l 1372 1047 b 1303 1124 1340 1083 1317 1110 z m 911 1113 l 776 1113 l 776 863 l 196 863 l 196 743 l 776 743 l 776 358 l 493 358 l 493 678 l 364 678 l 364 358 l 82 358 l 82 233 l 776 233 l 776 -136 l 911 -136 l 911 233 l 1292 233 l 1292 358 l 911 358 l 911 743 l 1188 743 l 1188 863 l 911 863 z m 1128 1085 l 1058 1019 l 1133 956 b 1210 890 1169 926 1196 904 l 1275 956 b 1128 1085 1218 1001 1199 1025 z "},"ヹ":{"ha":1389,"x_min":0,"x_max":0,"o":"m 1226 1172 l 1161 1113 l 1232 1053 l 1303 982 l 1378 1042 l 1318 1107 b 1226 1172 1296 1125 1267 1147 z m 1124 1079 l 1064 1014 l 1161 928 b 1199 879 1168 917 1181 901 l 1264 950 b 1124 1079 1217 1000 1171 1043 z m 722 157 l 722 418 l 1204 819 l 1113 933 l 174 933 l 174 797 l 971 797 l 722 575 l 586 586 l 586 157 l 65 157 l 65 17 l 1269 17 l 1269 157 z "},"ヺ":{"ha":1389,"x_min":0,"x_max":0,"o":"m 1238 1172 l 1172 1118 b 1215 1074 1200 1090 1199 1090 b 1307 982 1251 1042 1282 1011 l 1378 1042 b 1238 1172 1331 1092 1285 1136 z m 1150 1096 l 1085 1036 b 1150 976 1125 1000 1146 981 l 1210 906 l 1281 960 b 1221 1031 1258 988 1243 1008 z m 239 478 l 911 478 b 256 6 790 201 583 88 b 310 -125 281 -42 299 -85 b 854 157 528 -71 721 26 b 1139 944 1069 365 1096 556 l 206 944 l 206 808 l 982 808 b 944 608 978 743 967 676 l 239 608 z "},"・":{"ha":1389,"x_min":0,"x_max":0,"o":"m 586 424 l 629 379 l 781 379 l 825 424 l 825 575 l 781 618 l 629 618 l 586 575 z "},"ー":{"ha":1389,"x_min":0,"x_max":0,"o":"m 1243 429 l 1243 564 l 142 564 l 142 429 z "},"ヽ":{"ha":1389,"x_min":0,"x_max":0,"o":"m 885 174 l 1004 282 b 456 840 796 551 731 600 l 353 749 b 885 174 685 436 699 446 z "},"ヾ":{"ha":1389,"x_min":0,"x_max":0,"o":"m 885 146 l 1004 244 b 461 808 815 493 704 600 l 358 711 b 885 146 660 435 703 396 z m 831 863 l 882 817 b 982 711 917 786 950 751 l 1058 786 b 900 928 986 851 932 899 z m 950 982 b 1113 840 982 953 1036 906 l 1183 911 l 1025 1053 z "},"仝":{"ha":1389,"x_min":0,"x_max":0,"o":"m 618 429 l 618 38 l 119 38 l 119 -82 l 1264 -82 l 1264 38 l 749 38 l 749 429 l 1079 429 l 1079 549 l 271 549 l 271 429 z m 54 592 b 142 483 97 549 128 513 b 319 608 218 526 276 568 b 672 965 490 744 515 772 b 1238 493 819 778 1024 624 b 1329 603 1274 543 1304 581 b 749 1058 1093 728 906 864 l 771 1090 l 640 1144 b 54 592 450 894 326 758 z "},"（":{"ha":1389,"x_min":0,"x_max":0,"o":"m 1303 1064 l 1232 1133 b 922 489 1043 950 922 785 b 1226 -146 922 193 1051 14 l 1297 -76 b 1042 489 1149 86 1042 201 b 1303 1064 1042 758 1135 908 z "},"）":{"ha":1389,"x_min":0,"x_max":0,"o":"m 163 1128 l 92 1064 b 347 499 256 900 347 775 b 92 -76 347 213 251 83 l 168 -151 b 342 49 274 -36 331 31 b 467 489 404 128 467 328 b 163 1128 467 786 344 965 z "},"＊":{"ha":1389,"x_min":0,"x_max":0,"o":"m 694 86 b 776 163 742 86 776 113 b 760 244 776 185 771 213 b 700 467 746 292 725 365 b 851 331 786 399 838 353 b 976 244 907 275 926 244 b 1064 331 1019 244 1064 288 b 933 424 1064 396 1014 413 b 711 489 897 431 824 453 b 863 543 747 503 797 521 b 1058 651 926 586 1058 553 b 971 743 1058 699 1017 743 b 851 651 914 743 910 719 b 706 515 818 618 747 557 b 732 646 710 542 732 622 b 776 825 747 692 776 775 b 689 906 776 878 744 906 b 608 825 639 906 608 875 b 629 738 608 800 615 769 b 640 717 635 726 635 728 b 646 689 644 710 646 700 l 678 515 b 526 651 619 563 569 608 b 450 726 450 728 450 726 b 401 743 436 738 419 743 b 319 651 360 743 319 696 b 472 553 319 600 406 553 b 493 549 483 553 489 553 l 663 489 b 461 424 565 453 497 431 b 319 331 378 408 319 393 b 401 239 319 286 360 239 b 575 379 478 239 518 322 l 678 472 b 629 250 660 371 643 297 b 608 168 615 218 608 190 b 694 86 608 124 644 86 z "},"＝":{"ha":1389,"x_min":0,"x_max":0,"o":"m 1204 293 l 1204 396 l 174 396 l 174 293 z m 1204 581 l 1204 683 l 174 683 l 174 581 z "},"［":{"ha":1389,"x_min":0,"x_max":0,"o":"m 1292 -136 l 1292 -28 l 1019 -28 l 1019 999 l 1292 999 l 1292 1107 l 911 1107 l 911 -136 z "},"］":{"ha":1389,"x_min":0,"x_max":0,"o":"m 369 1014 l 369 -22 l 103 -22 l 103 -125 l 478 -125 l 478 1118 l 103 1118 l 103 1014 z "},"｛":{"ha":1389,"x_min":0,"x_max":0,"o":"m 993 489 b 1085 732 1086 551 1085 579 l 1085 922 b 1226 1014 1096 988 1146 1003 l 1226 1124 b 1074 1096 1143 1117 1092 1107 b 982 933 1029 1071 982 1001 l 982 765 b 840 549 982 600 985 549 l 840 439 b 976 157 1004 439 976 374 l 976 82 b 1226 -142 976 -78 1058 -142 l 1226 -32 b 1085 119 1107 -32 1085 -4 l 1085 336 b 993 489 1069 414 1058 429 z "},"｝":{"ha":1389,"x_min":0,"x_max":0,"o":"m 168 1128 l 168 1019 b 310 831 307 1000 310 994 b 315 613 314 740 315 667 b 407 493 333 550 357 531 b 315 358 368 467 315 433 b 310 71 311 246 310 150 b 168 -32 301 1 258 -32 l 168 -142 b 418 103 361 -142 408 -76 l 418 342 b 553 439 435 417 456 426 l 553 543 b 418 651 474 543 418 578 l 418 879 b 168 1128 418 1067 342 1118 z "},"ｰ":{"ha":694,"x_min":0,"x_max":0,"o":"m 71 564 l 71 429 l 618 429 l 618 564 z "}}}
